<svg xmlns="http://www.w3.org/2000/svg" viewBox="0 0 960 380">
<title>GRACE-FO PPP 2024-05-02</title>
<rect width="960" height="380" fill="white"/>
<rect x="72" y="40" width="868" height="89" fill="#f7f7f7"/>
<line x1="72" y1="84" x2="940" y2="84" stroke="#bbb"/>
<polyline points="72.0,84 74.27559055046439,84 76.55118110092876,84 78.82677165139314,84 81.10236220185752,84 288.18110229411616,84 290.45669284458063,84 292.732283395045,84 295.00787394550935,84 502.086614037768,84 504.3622045882324,84 506.63779513869673,84 508.9133856891612,84 511.1889762396255,84 715.9921257814199,84 718.2677163318841,84 720.5433068823486,84 722.818897432813,84 725.0944879832773,84 920.7952753232141,84 923.0708658736785,84 925.346456424143,84 929.8976375250716,84 932.173228075536,84 934.4488186260004,84 936.7244091764647,84 938.9999997269291,84" fill="none" stroke="#1565C0" stroke-width="1.5"/>
<text x="76" y="54" font-size="12" fill="#333" font-weight="bold">E (东西)</text>
<text x="944" y="54" font-size="11" fill="#1565C0">RMS=nan cm</text>
<rect x="72" y="137" width="868" height="89" fill="#f7f7f7"/>
<line x1="72" y1="181" x2="940" y2="181" stroke="#bbb"/>
<polyline points="72.0,181 74.27559055046439,181 76.55118110092876,181 78.82677165139314,181 81.10236220185752,181 288.18110229411616,181 290.45669284458063,181 292.732283395045,181 295.00787394550935,181 502.086614037768,181 504.3622045882324,181 506.63779513869673,181 508.9133856891612,181 511.1889762396255,181 715.9921257814199,181 718.2677163318841,181 720.5433068823486,181 722.818897432813,181 725.0944879832773,181 920.7952753232141,181 923.0708658736785,181 925.346456424143,181 929.8976375250716,181 932.173228075536,181 934.4488186260004,181 936.7244091764647,181 938.9999997269291,181" fill="none" stroke="#2E7D32" stroke-width="1.5"/>
<text x="76" y="151" font-size="12" fill="#333" font-weight="bold">N (南北)</text>
<text x="944" y="151" font-size="11" fill="#2E7D32">RMS=nan cm</text>
<rect x="72" y="234" width="868" height="89" fill="#f7f7f7"/>
<line x1="72" y1="278" x2="940" y2="278" stroke="#bbb"/>
<polyline points="72.0,278 74.27559055046439,278 76.55118110092876,278 78.82677165139314,278 81.10236220185752,278 288.18110229411616,278 290.45669284458063,278 292.732283395045,278 295.00787394550935,278 502.086614037768,278 504.3622045882324,278 506.63779513869673,278 508.9133856891612,278 511.1889762396255,278 715.9921257814199,278 718.2677163318841,278 720.5433068823486,278 722.818897432813,278 725.0944879832773,278 920.7952753232141,278 923.0708658736785,278 925.346456424143,278 929.8976375250716,278 932.173228075536,278 934.4488186260004,278 936.7244091764647,278 938.9999997269291,278" fill="none" stroke="#C62828" stroke-width="1.5"/>
<text x="76" y="248" font-size="12" fill="#333" font-weight="bold">U (垂直)</text>
<text x="944" y="248" font-size="11" fill="#C62828">RMS=nan cm</text>
<rect x="72" y="331" width="868" height="89" fill="#f7f7f7"/>
<line x1="72" y1="375" x2="940" y2="375" stroke="#bbb"/>
<polyline points="72.0,375 74.27559055046439,375 76.55118110092876,375 78.82677165139314,375 81.10236220185752,375 288.18110229411616,375 290.45669284458063,375 292.732283395045,375 295.00787394550935,375 502.086614037768,375 504.3622045882324,375 506.63779513869673,375 508.9133856891612,375 511.1889762396255,375 715.9921257814199,375 718.2677163318841,375 720.5433068823486,375 722.818897432813,375 725.0944879832773,375 920.7952753232141,375 923.0708658736785,375 925.346456424143,375 929.8976375250716,375 932.173228075536,375 934.4488186260004,375 936.7244091764647,375 938.9999997269291,375" fill="none" stroke="#1565C0" stroke-width="2" stroke-dasharray=""/>
<polyline points="72.0,375 74.27559055046439,375 76.55118110092876,375 78.82677165139314,375 81.10236220185752,375 288.18110229411616,375 290.45669284458063,375 292.732283395045,375 295.00787394550935,375 502.086614037768,375 504.3622045882324,375 506.63779513869673,375 508.9133856891612,375 511.1889762396255,375 715.9921257814199,375 718.2677163318841,375 720.5433068823486,375 722.818897432813,375 725.0944879832773,375 920.7952753232141,375 923.0708658736785,375 925.346456424143,375 929.8976375250716,375 932.173228075536,375 934.4488186260004,375 936.7244091764647,375 938.9999997269291,375" fill="none" stroke="#2E7D32" stroke-width="2" stroke-dasharray=""/>
<polyline points="72.0,375 74.27559055046439,375 76.55118110092876,375 78.82677165139314,375 81.10236220185752,375 288.18110229411616,375 290.45669284458063,375 292.732283395045,375 295.00787394550935,375 502.086614037768,375 504.3622045882324,375 506.63779513869673,375 508.9133856891612,375 511.1889762396255,375 715.9921257814199,375 718.2677163318841,375 720.5433068823486,375 722.818897432813,375 725.0944879832773,375 920.7952753232141,375 923.0708658736785,375 925.346456424143,375 929.8976375250716,375 932.173228075536,375 934.4488186260004,375 936.7244091764647,375 938.9999997269291,375" fill="none" stroke="#C62828" stroke-width="2" stroke-dasharray=""/>
<polyline points="72.0,375 74.27559055046439,375 76.55118110092876,375 78.82677165139314,375 81.10236220185752,375 288.18110229411616,375 290.45669284458063,375 292.732283395045,375 295.00787394550935,375 502.086614037768,375 504.3622045882324,375 506.63779513869673,375 508.9133856891612,375 511.1889762396255,375 715.9921257814199,375 718.2677163318841,375 720.5433068823486,375 722.818897432813,375 725.0944879832773,375 920.7952753232141,375 923.0708658736785,375 925.346456424143,375 929.8976375250716,375 932.173228075536,375 934.4488186260004,375 936.7244091764647,375 938.9999997269291,375" fill="none" stroke="#333" stroke-width="2" stroke-dasharray="4,4"/>
<text x="76" y="345" font-size="12" fill="#333" font-weight="bold">3D 位置误差</text>
<text x="944" y="345" font-size="11" fill="#333">3D RMS=nan cm</text>
<text x="480" y="24" text-anchor="middle" font-size="13" font-weight="bold">GRACE-FO PPP v1.2.0 — 2024-05-02 (GPS1B+IGS Final+MW+KF)</text>
<text x="480" y="38" text-anchor="middle" font-size="11" fill="#666">收敛 0/27 (0.0%) | E:nan N:nan U:nan 3D:nan cm</text>
<text x="480" y="374" text-anchor="middle" font-size="10" fill="#888">时间 (小时)</text>
</svg>