<svg xmlns="http://www.w3.org/2000/svg" width="900" height="520" font-family="DejaVu Sans,sans-serif" font-size="11"><rect width="900" height="520" fill="white"/>
<rect x="60" y="28" width="820" height="149" fill="#f8f9fa"/>
<line x1="60" y1="28" x2="60" y2="177" stroke="#e0e0e0" stroke-width="0.5"/>
<line x1="78" y1="28" x2="78" y2="177" stroke="#e0e0e0" stroke-width="0.5"/>
<line x1="97" y1="28" x2="97" y2="177" stroke="#e0e0e0" stroke-width="0.5"/>
<line x1="116" y1="28" x2="116" y2="177" stroke="#e0e0e0" stroke-width="0.5"/>
<line x1="135" y1="28" x2="135" y2="177" stroke="#e0e0e0" stroke-width="0.5"/>
<line x1="154" y1="28" x2="154" y2="177" stroke="#e0e0e0" stroke-width="0.5"/>
<line x1="173" y1="28" x2="173" y2="177" stroke="#e0e0e0" stroke-width="0.5"/>
<line x1="191" y1="28" x2="191" y2="177" stroke="#e0e0e0" stroke-width="0.5"/>
<line x1="210" y1="28" x2="210" y2="177" stroke="#e0e0e0" stroke-width="0.5"/>
<line x1="229" y1="28" x2="229" y2="177" stroke="#e0e0e0" stroke-width="0.5"/>
<line x1="248" y1="28" x2="248" y2="177" stroke="#e0e0e0" stroke-width="0.5"/>
<line x1="267" y1="28" x2="267" y2="177" stroke="#e0e0e0" stroke-width="0.5"/>
<line x1="286" y1="28" x2="286" y2="177" stroke="#e0e0e0" stroke-width="0.5"/>
<line x1="305" y1="28" x2="305" y2="177" stroke="#e0e0e0" stroke-width="0.5"/>
<line x1="323" y1="28" x2="323" y2="177" stroke="#e0e0e0" stroke-width="0.5"/>
<line x1="342" y1="28" x2="342" y2="177" stroke="#e0e0e0" stroke-width="0.5"/>
<line x1="361" y1="28" x2="361" y2="177" stroke="#e0e0e0" stroke-width="0.5"/>
<line x1="380" y1="28" x2="380" y2="177" stroke="#e0e0e0" stroke-width="0.5"/>
<line x1="399" y1="28" x2="399" y2="177" stroke="#e0e0e0" stroke-width="0.5"/>
<line x1="418" y1="28" x2="418" y2="177" stroke="#e0e0e0" stroke-width="0.5"/>
<line x1="436" y1="28" x2="436" y2="177" stroke="#e0e0e0" stroke-width="0.5"/>
<line x1="455" y1="28" x2="455" y2="177" stroke="#e0e0e0" stroke-width="0.5"/>
<line x1="474" y1="28" x2="474" y2="177" stroke="#e0e0e0" stroke-width="0.5"/>
<line x1="493" y1="28" x2="493" y2="177" stroke="#e0e0e0" stroke-width="0.5"/>
<line x1="512" y1="28" x2="512" y2="177" stroke="#e0e0e0" stroke-width="0.5"/>
<line x1="531" y1="28" x2="531" y2="177" stroke="#e0e0e0" stroke-width="0.5"/>
<line x1="550" y1="28" x2="550" y2="177" stroke="#e0e0e0" stroke-width="0.5"/>
<line x1="568" y1="28" x2="568" y2="177" stroke="#e0e0e0" stroke-width="0.5"/>
<line x1="587" y1="28" x2="587" y2="177" stroke="#e0e0e0" stroke-width="0.5"/>
<line x1="606" y1="28" x2="606" y2="177" stroke="#e0e0e0" stroke-width="0.5"/>
<line x1="625" y1="28" x2="625" y2="177" stroke="#e0e0e0" stroke-width="0.5"/>
<line x1="644" y1="28" x2="644" y2="177" stroke="#e0e0e0" stroke-width="0.5"/>
<line x1="663" y1="28" x2="663" y2="177" stroke="#e0e0e0" stroke-width="0.5"/>
<line x1="681" y1="28" x2="681" y2="177" stroke="#e0e0e0" stroke-width="0.5"/>
<line x1="700" y1="28" x2="700" y2="177" stroke="#e0e0e0" stroke-width="0.5"/>
<line x1="719" y1="28" x2="719" y2="177" stroke="#e0e0e0" stroke-width="0.5"/>
<line x1="738" y1="28" x2="738" y2="177" stroke="#e0e0e0" stroke-width="0.5"/>
<line x1="757" y1="28" x2="757" y2="177" stroke="#e0e0e0" stroke-width="0.5"/>
<line x1="776" y1="28" x2="776" y2="177" stroke="#e0e0e0" stroke-width="0.5"/>
<line x1="795" y1="28" x2="795" y2="177" stroke="#e0e0e0" stroke-width="0.5"/>
<line x1="813" y1="28" x2="813" y2="177" stroke="#e0e0e0" stroke-width="0.5"/>
<line x1="832" y1="28" x2="832" y2="177" stroke="#e0e0e0" stroke-width="0.5"/>
<line x1="851" y1="28" x2="851" y2="177" stroke="#e0e0e0" stroke-width="0.5"/>
<line x1="870" y1="28" x2="870" y2="177" stroke="#e0e0e0" stroke-width="0.5"/>
<line x1="60" y1="102" x2="880" y2="102" stroke="#999" stroke-width="0.8"/>
<polyline points="60.0,100.0 61.7,98.0 63.4,96.0 65.1,94.0 66.9,91.0 68.6,89.0 70.3,87.0 72.0,85.0 73.7,83.0 75.4,81.0 77.1,79.0 78.8,77.0 80.6,75.0 82.3,73.0 84.0,71.0 85.7,70.0 87.4,68.0 89.1,66.0 90.8,64.0 92.6,63.0 94.3,61.0 96.0,60.0 97.7,58.0 99.4,57.0 101.1,56.0 102.8,55.0 104.5,53.0 106.3,52.0 108.0,51.0 109.7,50.0 111.4,49.0 113.1,48.0 114.8,48.0 116.5,47.0 118.3,46.0 120.0,46.0 121.7,45.0 123.4,45.0 125.1,44.0 126.8,44.0 128.5,44.0 130.2,43.0 132.0,43.0 133.7,43.0 135.4,43.0 137.1,43.0 138.8,44.0 140.5,44.0 142.2,44.0 144.0,44.0 145.7,45.0 147.4,45.0 149.1,46.0 150.8,46.0 152.5,47.0 154.2,48.0 155.9,48.0 157.7,49.0 159.4,50.0 161.1,51.0 162.8,52.0 164.5,53.0 166.2,54.0 167.9,55.0 169.7,56.0 171.4,58.0 173.1,59.0 174.8,60.0 176.5,62.0 178.2,63.0 179.9,64.0 181.7,66.0 183.4,67.0 185.1,69.0 186.8,70.0 188.5,72.0 190.2,73.0 191.9,75.0 193.6,77.0 195.4,78.0 197.1,80.0 198.8,81.0 200.5,83.0 202.2,85.0 203.9,86.0 205.6,88.0 207.4,90.0 209.1,92.0 210.8,93.0 212.5,95.0 214.2,97.0 215.9,98.0 217.6,100.0 219.3,102.0 221.1,103.0 222.8,105.0 224.5,106.0 226.2,108.0 227.9,109.0 229.6,111.0 231.3,113.0 233.1,114.0 234.8,116.0 236.5,117.0 238.2,118.0 239.9,120.0 241.6,121.0 243.3,122.0 245.0,124.0 246.8,125.0 248.5,126.0 250.2,127.0 251.9,128.0 253.6,129.0 255.3,131.0 257.0,132.0 258.8,133.0 260.5,133.0 262.2,134.0 263.9,135.0 265.6,136.0 267.3,137.0 269.0,137.0 270.7,138.0 272.5,139.0 274.2,139.0 275.9,140.0 277.6,140.0 279.3,140.0 281.0,141.0 282.7,141.0 284.5,141.0 286.2,142.0 287.9,142.0 289.6,142.0 291.3,142.0 293.0,142.0 294.7,142.0 296.4,142.0 298.2,142.0 299.9,142.0 301.6,141.0 303.3,141.0 305.0,141.0 306.7,141.0 308.4,140.0 310.2,140.0 311.9,139.0 313.6,139.0 315.3,138.0 317.0,138.0 318.7,137.0 320.4,137.0 322.1,136.0 323.9,135.0 325.6,135.0 327.3,134.0 329.0,133.0 330.7,132.0 332.4,132.0 334.1,131.0 335.9,130.0 337.6,129.0 339.3,128.0 341.0,127.0 342.7,126.0 344.4,125.0 346.1,124.0 347.8,123.0 349.6,122.0 351.3,121.0 353.0,120.0 354.7,119.0 356.4,118.0 358.1,117.0 359.8,116.0 361.6,115.0 363.3,114.0 365.0,113.0 366.7,112.0 368.4,111.0 370.1,110.0 371.8,109.0 373.6,108.0 375.3,107.0 377.0,106.0 378.7,105.0 380.4,104.0 382.1,103.0 383.8,102.0 385.5,101.0 387.3,101.0 389.0,100.0 390.7,99.0 392.4,98.0 394.1,97.0 395.8,96.0 397.5,96.0 399.3,95.0 401.0,94.0 402.7,93.0 404.4,93.0 406.1,92.0 407.8,91.0 409.5,91.0 411.2,90.0 413.0,90.0 414.7,89.0 416.4,89.0 418.1,88.0 419.8,88.0 421.5,87.0 423.2,87.0 425.0,86.0 426.7,86.0 428.4,86.0 430.1,85.0 431.8,85.0 433.5,85.0 435.2,85.0 436.9,85.0 438.7,84.0 440.4,84.0 442.1,84.0 443.8,84.0 445.5,84.0 447.2,84.0 448.9,84.0 450.7,84.0 452.4,84.0 454.1,84.0 455.8,84.0 457.5,84.0 459.2,85.0 460.9,85.0 462.6,85.0 464.4,85.0 466.1,85.0 467.8,86.0 469.5,86.0 471.2,86.0 472.9,86.0 474.6,87.0 476.4,87.0 478.1,87.0 479.8,88.0 481.5,88.0 483.2,88.0 484.9,89.0 486.6,89.0 488.3,90.0 490.1,90.0 491.8,90.0 493.5,91.0 495.2,91.0 496.9,92.0 498.6,92.0 500.3,92.0 502.1,93.0 503.8,93.0 505.5,94.0 507.2,94.0 508.9,94.0 510.6,95.0 512.3,95.0 514.0,96.0 515.8,96.0 517.5,96.0 519.2,97.0 520.9,97.0 522.6,97.0 524.3,98.0 526.0,98.0 527.8,98.0 529.5,99.0 531.2,99.0 532.9,99.0 534.6,100.0 536.3,100.0 538.0,100.0 539.7,100.0 541.5,101.0 543.2,101.0 544.9,101.0 546.6,101.0 548.3,101.0 550.0,101.0 551.7,102.0 553.5,102.0 555.2,102.0 556.9,102.0 558.6,102.0 560.3,102.0 562.0,102.0 563.7,102.0 565.4,102.0 567.2,102.0 568.9,102.0 570.6,102.0 572.3,102.0 574.0,102.0 575.7,102.0 577.4,102.0 579.2,102.0 580.9,102.0 582.6,102.0 584.3,102.0 586.0,102.0 587.7,101.0 589.4,101.0 591.2,101.0 592.9,101.0 594.6,101.0 596.3,101.0 598.0,101.0 599.7,100.0 601.4,100.0 603.1,100.0 604.9,100.0 606.6,100.0 608.3,99.0 610.0,99.0 611.7,99.0 613.4,99.0 615.1,99.0 616.9,99.0 618.6,98.0 620.3,98.0 622.0,98.0 623.7,98.0 625.4,98.0 627.1,98.0 628.8,97.0 630.6,97.0 632.3,97.0 634.0,97.0 635.7,97.0 637.4,97.0 639.1,97.0 640.8,97.0 642.6,96.0 644.3,96.0 646.0,96.0 647.7,96.0 649.4,96.0 651.1,96.0 652.8,96.0 654.5,96.0 656.3,96.0 658.0,96.0 659.7,97.0 661.4,97.0 663.1,97.0 664.8,97.0 666.5,97.0 668.3,97.0 670.0,97.0 671.7,98.0 673.4,98.0 675.1,98.0 676.8,98.0 678.5,99.0 680.2,99.0 682.0,99.0 683.7,99.0 685.4,100.0 687.1,100.0 688.8,101.0 690.5,101.0 692.2,101.0 694.0,102.0 695.7,102.0 697.4,103.0 699.1,103.0 700.8,104.0 702.5,104.0 704.2,105.0 705.9,105.0 707.7,106.0 709.4,106.0 711.1,107.0 712.8,108.0 714.5,108.0 716.2,109.0 717.9,109.0 719.7,110.0 721.4,111.0 723.1,111.0 724.8,112.0 726.5,112.0 728.2,113.0 729.9,114.0 731.6,114.0 733.4,115.0 735.1,116.0 736.8,116.0 738.5,117.0 740.2,118.0 741.9,118.0 743.6,119.0 745.4,119.0 747.1,120.0 748.8,121.0 750.5,121.0 752.2,122.0 753.9,122.0 755.6,123.0 757.3,123.0 759.1,124.0 760.8,124.0 762.5,125.0 764.2,125.0 765.9,126.0 767.6,126.0 769.3,127.0 771.1,127.0 772.8,127.0 774.5,128.0 776.2,128.0 777.9,128.0 779.6,129.0 781.3,129.0 783.1,129.0 784.8,129.0 786.5,129.0 788.2,129.0 789.9,129.0 791.6,130.0 793.3,130.0 795.0,130.0 796.8,129.0 798.5,129.0 800.2,129.0 801.9,129.0 803.6,129.0 805.3,129.0 807.0,128.0 808.8,128.0 810.5,128.0 812.2,127.0 813.9,127.0 815.6,127.0 817.3,126.0 819.0,126.0 820.7,125.0 822.5,124.0 824.2,124.0 825.9,123.0 827.6,122.0 829.3,122.0 831.0,121.0 832.7,120.0 834.5,119.0 836.2,119.0 837.9,118.0 839.6,117.0 841.3,116.0 843.0,115.0 844.7,114.0 846.4,113.0 848.2,112.0 849.9,111.0 851.6,110.0 853.3,108.0 855.0,107.0 856.7,106.0 858.4,105.0 860.2,104.0 861.9,103.0 863.6,101.0 865.3,100.0 867.0,99.0 868.7,98.0 870.4,96.0 872.1,95.0 873.9,94.0 875.6,92.0 877.3,91.0 879.0,90.0" fill="none" stroke="#1565C0" stroke-width="1.2"/>
<text x="64" y="42" fill="#1565C0" font-weight="bold">E (东西)</text>
<text x="876" y="42" text-anchor="end" fill="#555">RMS=155253262.40 cm</text>
<rect x="60" y="28" width="820" height="149" fill="none" stroke="#ccc" stroke-width="1"/>
<rect x="60" y="185" width="820" height="149" fill="#f8f9fa"/>
<line x1="60" y1="185" x2="60" y2="334" stroke="#e0e0e0" stroke-width="0.5"/>
<line x1="78" y1="185" x2="78" y2="334" stroke="#e0e0e0" stroke-width="0.5"/>
<line x1="97" y1="185" x2="97" y2="334" stroke="#e0e0e0" stroke-width="0.5"/>
<line x1="116" y1="185" x2="116" y2="334" stroke="#e0e0e0" stroke-width="0.5"/>
<line x1="135" y1="185" x2="135" y2="334" stroke="#e0e0e0" stroke-width="0.5"/>
<line x1="154" y1="185" x2="154" y2="334" stroke="#e0e0e0" stroke-width="0.5"/>
<line x1="173" y1="185" x2="173" y2="334" stroke="#e0e0e0" stroke-width="0.5"/>
<line x1="191" y1="185" x2="191" y2="334" stroke="#e0e0e0" stroke-width="0.5"/>
<line x1="210" y1="185" x2="210" y2="334" stroke="#e0e0e0" stroke-width="0.5"/>
<line x1="229" y1="185" x2="229" y2="334" stroke="#e0e0e0" stroke-width="0.5"/>
<line x1="248" y1="185" x2="248" y2="334" stroke="#e0e0e0" stroke-width="0.5"/>
<line x1="267" y1="185" x2="267" y2="334" stroke="#e0e0e0" stroke-width="0.5"/>
<line x1="286" y1="185" x2="286" y2="334" stroke="#e0e0e0" stroke-width="0.5"/>
<line x1="305" y1="185" x2="305" y2="334" stroke="#e0e0e0" stroke-width="0.5"/>
<line x1="323" y1="185" x2="323" y2="334" stroke="#e0e0e0" stroke-width="0.5"/>
<line x1="342" y1="185" x2="342" y2="334" stroke="#e0e0e0" stroke-width="0.5"/>
<line x1="361" y1="185" x2="361" y2="334" stroke="#e0e0e0" stroke-width="0.5"/>
<line x1="380" y1="185" x2="380" y2="334" stroke="#e0e0e0" stroke-width="0.5"/>
<line x1="399" y1="185" x2="399" y2="334" stroke="#e0e0e0" stroke-width="0.5"/>
<line x1="418" y1="185" x2="418" y2="334" stroke="#e0e0e0" stroke-width="0.5"/>
<line x1="436" y1="185" x2="436" y2="334" stroke="#e0e0e0" stroke-width="0.5"/>
<line x1="455" y1="185" x2="455" y2="334" stroke="#e0e0e0" stroke-width="0.5"/>
<line x1="474" y1="185" x2="474" y2="334" stroke="#e0e0e0" stroke-width="0.5"/>
<line x1="493" y1="185" x2="493" y2="334" stroke="#e0e0e0" stroke-width="0.5"/>
<line x1="512" y1="185" x2="512" y2="334" stroke="#e0e0e0" stroke-width="0.5"/>
<line x1="531" y1="185" x2="531" y2="334" stroke="#e0e0e0" stroke-width="0.5"/>
<line x1="550" y1="185" x2="550" y2="334" stroke="#e0e0e0" stroke-width="0.5"/>
<line x1="568" y1="185" x2="568" y2="334" stroke="#e0e0e0" stroke-width="0.5"/>
<line x1="587" y1="185" x2="587" y2="334" stroke="#e0e0e0" stroke-width="0.5"/>
<line x1="606" y1="185" x2="606" y2="334" stroke="#e0e0e0" stroke-width="0.5"/>
<line x1="625" y1="185" x2="625" y2="334" stroke="#e0e0e0" stroke-width="0.5"/>
<line x1="644" y1="185" x2="644" y2="334" stroke="#e0e0e0" stroke-width="0.5"/>
<line x1="663" y1="185" x2="663" y2="334" stroke="#e0e0e0" stroke-width="0.5"/>
<line x1="681" y1="185" x2="681" y2="334" stroke="#e0e0e0" stroke-width="0.5"/>
<line x1="700" y1="185" x2="700" y2="334" stroke="#e0e0e0" stroke-width="0.5"/>
<line x1="719" y1="185" x2="719" y2="334" stroke="#e0e0e0" stroke-width="0.5"/>
<line x1="738" y1="185" x2="738" y2="334" stroke="#e0e0e0" stroke-width="0.5"/>
<line x1="757" y1="185" x2="757" y2="334" stroke="#e0e0e0" stroke-width="0.5"/>
<line x1="776" y1="185" x2="776" y2="334" stroke="#e0e0e0" stroke-width="0.5"/>
<line x1="795" y1="185" x2="795" y2="334" stroke="#e0e0e0" stroke-width="0.5"/>
<line x1="813" y1="185" x2="813" y2="334" stroke="#e0e0e0" stroke-width="0.5"/>
<line x1="832" y1="185" x2="832" y2="334" stroke="#e0e0e0" stroke-width="0.5"/>
<line x1="851" y1="185" x2="851" y2="334" stroke="#e0e0e0" stroke-width="0.5"/>
<line x1="870" y1="185" x2="870" y2="334" stroke="#e0e0e0" stroke-width="0.5"/>
<line x1="60" y1="259" x2="880" y2="259" stroke="#999" stroke-width="0.8"/>
<text x="64" y="199" fill="#2E7D32" font-weight="bold">N (南北)</text>
<text x="876" y="199" text-anchor="end" fill="#555">RMS=nan cm</text>
<rect x="60" y="185" width="820" height="149" fill="none" stroke="#ccc" stroke-width="1"/>
<rect x="60" y="342" width="820" height="149" fill="#f8f9fa"/>
<line x1="60" y1="342" x2="60" y2="491" stroke="#e0e0e0" stroke-width="0.5"/>
<line x1="78" y1="342" x2="78" y2="491" stroke="#e0e0e0" stroke-width="0.5"/>
<line x1="97" y1="342" x2="97" y2="491" stroke="#e0e0e0" stroke-width="0.5"/>
<line x1="116" y1="342" x2="116" y2="491" stroke="#e0e0e0" stroke-width="0.5"/>
<line x1="135" y1="342" x2="135" y2="491" stroke="#e0e0e0" stroke-width="0.5"/>
<line x1="154" y1="342" x2="154" y2="491" stroke="#e0e0e0" stroke-width="0.5"/>
<line x1="173" y1="342" x2="173" y2="491" stroke="#e0e0e0" stroke-width="0.5"/>
<line x1="191" y1="342" x2="191" y2="491" stroke="#e0e0e0" stroke-width="0.5"/>
<line x1="210" y1="342" x2="210" y2="491" stroke="#e0e0e0" stroke-width="0.5"/>
<line x1="229" y1="342" x2="229" y2="491" stroke="#e0e0e0" stroke-width="0.5"/>
<line x1="248" y1="342" x2="248" y2="491" stroke="#e0e0e0" stroke-width="0.5"/>
<line x1="267" y1="342" x2="267" y2="491" stroke="#e0e0e0" stroke-width="0.5"/>
<line x1="286" y1="342" x2="286" y2="491" stroke="#e0e0e0" stroke-width="0.5"/>
<line x1="305" y1="342" x2="305" y2="491" stroke="#e0e0e0" stroke-width="0.5"/>
<line x1="323" y1="342" x2="323" y2="491" stroke="#e0e0e0" stroke-width="0.5"/>
<line x1="342" y1="342" x2="342" y2="491" stroke="#e0e0e0" stroke-width="0.5"/>
<line x1="361" y1="342" x2="361" y2="491" stroke="#e0e0e0" stroke-width="0.5"/>
<line x1="380" y1="342" x2="380" y2="491" stroke="#e0e0e0" stroke-width="0.5"/>
<line x1="399" y1="342" x2="399" y2="491" stroke="#e0e0e0" stroke-width="0.5"/>
<line x1="418" y1="342" x2="418" y2="491" stroke="#e0e0e0" stroke-width="0.5"/>
<line x1="436" y1="342" x2="436" y2="491" stroke="#e0e0e0" stroke-width="0.5"/>
<line x1="455" y1="342" x2="455" y2="491" stroke="#e0e0e0" stroke-width="0.5"/>
<line x1="474" y1="342" x2="474" y2="491" stroke="#e0e0e0" stroke-width="0.5"/>
<line x1="493" y1="342" x2="493" y2="491" stroke="#e0e0e0" stroke-width="0.5"/>
<line x1="512" y1="342" x2="512" y2="491" stroke="#e0e0e0" stroke-width="0.5"/>
<line x1="531" y1="342" x2="531" y2="491" stroke="#e0e0e0" stroke-width="0.5"/>
<line x1="550" y1="342" x2="550" y2="491" stroke="#e0e0e0" stroke-width="0.5"/>
<line x1="568" y1="342" x2="568" y2="491" stroke="#e0e0e0" stroke-width="0.5"/>
<line x1="587" y1="342" x2="587" y2="491" stroke="#e0e0e0" stroke-width="0.5"/>
<line x1="606" y1="342" x2="606" y2="491" stroke="#e0e0e0" stroke-width="0.5"/>
<line x1="625" y1="342" x2="625" y2="491" stroke="#e0e0e0" stroke-width="0.5"/>
<line x1="644" y1="342" x2="644" y2="491" stroke="#e0e0e0" stroke-width="0.5"/>
<line x1="663" y1="342" x2="663" y2="491" stroke="#e0e0e0" stroke-width="0.5"/>
<line x1="681" y1="342" x2="681" y2="491" stroke="#e0e0e0" stroke-width="0.5"/>
<line x1="700" y1="342" x2="700" y2="491" stroke="#e0e0e0" stroke-width="0.5"/>
<line x1="719" y1="342" x2="719" y2="491" stroke="#e0e0e0" stroke-width="0.5"/>
<line x1="738" y1="342" x2="738" y2="491" stroke="#e0e0e0" stroke-width="0.5"/>
<line x1="757" y1="342" x2="757" y2="491" stroke="#e0e0e0" stroke-width="0.5"/>
<line x1="776" y1="342" x2="776" y2="491" stroke="#e0e0e0" stroke-width="0.5"/>
<line x1="795" y1="342" x2="795" y2="491" stroke="#e0e0e0" stroke-width="0.5"/>
<line x1="813" y1="342" x2="813" y2="491" stroke="#e0e0e0" stroke-width="0.5"/>
<line x1="832" y1="342" x2="832" y2="491" stroke="#e0e0e0" stroke-width="0.5"/>
<line x1="851" y1="342" x2="851" y2="491" stroke="#e0e0e0" stroke-width="0.5"/>
<line x1="870" y1="342" x2="870" y2="491" stroke="#e0e0e0" stroke-width="0.5"/>
<line x1="60" y1="416" x2="880" y2="416" stroke="#999" stroke-width="0.8"/>
<text x="64" y="356" fill="#C62828" font-weight="bold">U (垂直)</text>
<text x="876" y="356" text-anchor="end" fill="#555">RMS=nan cm</text>
<rect x="60" y="342" width="820" height="149" fill="none" stroke="#ccc" stroke-width="1"/>
<text x="450" y="512" text-anchor="middle" font-size="12" fill="#333">2024-04-29 4h | 3D RMS=nan cm (479 epochs)</text>
</svg>