<svg xmlns="http://www.w3.org/2000/svg" width="900" height="520" font-family="DejaVu Sans,sans-serif" font-size="11"><rect width="900" height="520" fill="white"/>
<rect x="60" y="28" width="820" height="149" fill="#f8f9fa"/>
<line x1="60" y1="28" x2="60" y2="177" stroke="#e0e0e0" stroke-width="0.5"/>
<line x1="78" y1="28" x2="78" y2="177" stroke="#e0e0e0" stroke-width="0.5"/>
<line x1="97" y1="28" x2="97" y2="177" stroke="#e0e0e0" stroke-width="0.5"/>
<line x1="116" y1="28" x2="116" y2="177" stroke="#e0e0e0" stroke-width="0.5"/>
<line x1="135" y1="28" x2="135" y2="177" stroke="#e0e0e0" stroke-width="0.5"/>
<line x1="154" y1="28" x2="154" y2="177" stroke="#e0e0e0" stroke-width="0.5"/>
<line x1="173" y1="28" x2="173" y2="177" stroke="#e0e0e0" stroke-width="0.5"/>
<line x1="191" y1="28" x2="191" y2="177" stroke="#e0e0e0" stroke-width="0.5"/>
<line x1="210" y1="28" x2="210" y2="177" stroke="#e0e0e0" stroke-width="0.5"/>
<line x1="229" y1="28" x2="229" y2="177" stroke="#e0e0e0" stroke-width="0.5"/>
<line x1="248" y1="28" x2="248" y2="177" stroke="#e0e0e0" stroke-width="0.5"/>
<line x1="267" y1="28" x2="267" y2="177" stroke="#e0e0e0" stroke-width="0.5"/>
<line x1="286" y1="28" x2="286" y2="177" stroke="#e0e0e0" stroke-width="0.5"/>
<line x1="305" y1="28" x2="305" y2="177" stroke="#e0e0e0" stroke-width="0.5"/>
<line x1="323" y1="28" x2="323" y2="177" stroke="#e0e0e0" stroke-width="0.5"/>
<line x1="342" y1="28" x2="342" y2="177" stroke="#e0e0e0" stroke-width="0.5"/>
<line x1="361" y1="28" x2="361" y2="177" stroke="#e0e0e0" stroke-width="0.5"/>
<line x1="380" y1="28" x2="380" y2="177" stroke="#e0e0e0" stroke-width="0.5"/>
<line x1="399" y1="28" x2="399" y2="177" stroke="#e0e0e0" stroke-width="0.5"/>
<line x1="418" y1="28" x2="418" y2="177" stroke="#e0e0e0" stroke-width="0.5"/>
<line x1="436" y1="28" x2="436" y2="177" stroke="#e0e0e0" stroke-width="0.5"/>
<line x1="455" y1="28" x2="455" y2="177" stroke="#e0e0e0" stroke-width="0.5"/>
<line x1="474" y1="28" x2="474" y2="177" stroke="#e0e0e0" stroke-width="0.5"/>
<line x1="493" y1="28" x2="493" y2="177" stroke="#e0e0e0" stroke-width="0.5"/>
<line x1="512" y1="28" x2="512" y2="177" stroke="#e0e0e0" stroke-width="0.5"/>
<line x1="531" y1="28" x2="531" y2="177" stroke="#e0e0e0" stroke-width="0.5"/>
<line x1="550" y1="28" x2="550" y2="177" stroke="#e0e0e0" stroke-width="0.5"/>
<line x1="568" y1="28" x2="568" y2="177" stroke="#e0e0e0" stroke-width="0.5"/>
<line x1="587" y1="28" x2="587" y2="177" stroke="#e0e0e0" stroke-width="0.5"/>
<line x1="606" y1="28" x2="606" y2="177" stroke="#e0e0e0" stroke-width="0.5"/>
<line x1="625" y1="28" x2="625" y2="177" stroke="#e0e0e0" stroke-width="0.5"/>
<line x1="644" y1="28" x2="644" y2="177" stroke="#e0e0e0" stroke-width="0.5"/>
<line x1="663" y1="28" x2="663" y2="177" stroke="#e0e0e0" stroke-width="0.5"/>
<line x1="681" y1="28" x2="681" y2="177" stroke="#e0e0e0" stroke-width="0.5"/>
<line x1="700" y1="28" x2="700" y2="177" stroke="#e0e0e0" stroke-width="0.5"/>
<line x1="719" y1="28" x2="719" y2="177" stroke="#e0e0e0" stroke-width="0.5"/>
<line x1="738" y1="28" x2="738" y2="177" stroke="#e0e0e0" stroke-width="0.5"/>
<line x1="757" y1="28" x2="757" y2="177" stroke="#e0e0e0" stroke-width="0.5"/>
<line x1="776" y1="28" x2="776" y2="177" stroke="#e0e0e0" stroke-width="0.5"/>
<line x1="795" y1="28" x2="795" y2="177" stroke="#e0e0e0" stroke-width="0.5"/>
<line x1="813" y1="28" x2="813" y2="177" stroke="#e0e0e0" stroke-width="0.5"/>
<line x1="832" y1="28" x2="832" y2="177" stroke="#e0e0e0" stroke-width="0.5"/>
<line x1="851" y1="28" x2="851" y2="177" stroke="#e0e0e0" stroke-width="0.5"/>
<line x1="870" y1="28" x2="870" y2="177" stroke="#e0e0e0" stroke-width="0.5"/>
<line x1="60" y1="102" x2="880" y2="102" stroke="#999" stroke-width="0.8"/>
<polyline points="60.0,102.0 61.7,102.0 63.4,102.0 65.1,102.0 66.9,102.0 68.6,102.0 70.3,102.0 72.0,102.0 73.7,102.0 75.4,102.0 77.1,102.0 78.8,102.0 80.6,103.0 82.3,103.0 84.0,103.0 85.7,103.0 87.4,103.0 89.1,103.0 90.8,103.0 92.6,103.0 94.3,103.0 96.0,103.0 97.7,103.0 99.4,103.0 101.1,103.0 102.8,103.0 104.5,103.0 106.3,103.0 108.0,103.0 109.7,103.0 111.4,103.0 113.1,103.0 114.8,103.0 116.5,103.0 118.3,103.0 120.0,103.0 121.7,104.0 123.4,104.0 125.1,104.0 126.8,104.0 128.5,104.0 130.2,104.0 132.0,104.0 133.7,104.0 135.4,104.0 137.1,104.0 138.8,104.0 140.5,104.0 142.2,104.0 144.0,104.0 145.7,104.0 147.4,104.0 149.1,104.0 150.8,104.0 152.5,104.0 154.2,104.0 155.9,104.0 157.7,104.0 159.4,104.0 161.1,104.0 162.8,104.0 164.5,104.0 166.2,104.0 167.9,104.0 169.7,104.0 171.4,104.0 173.1,104.0 174.8,104.0 176.5,103.0 178.2,103.0 179.9,103.0 181.7,103.0 183.4,103.0 185.1,103.0 186.8,103.0 188.5,103.0 190.2,103.0 191.9,103.0 193.6,102.0 195.4,102.0 197.1,102.0 198.8,102.0 200.5,102.0 202.2,102.0 203.9,102.0 205.6,102.0 207.4,101.0 209.1,101.0 210.8,101.0 212.5,101.0 214.2,101.0 215.9,101.0 217.6,100.0 219.3,100.0 221.1,100.0 222.8,100.0 224.5,100.0 226.2,100.0 227.9,99.0 229.6,99.0 231.3,99.0 233.1,99.0 234.8,99.0 236.5,99.0 238.2,98.0 239.9,98.0 241.6,98.0 243.3,98.0 245.0,98.0 246.8,98.0 248.5,97.0 250.2,97.0 251.9,97.0 253.6,97.0 255.3,97.0 257.0,97.0 258.8,97.0 260.5,97.0 262.2,96.0 263.9,96.0 265.6,96.0 267.3,96.0 269.0,96.0 270.7,96.0 272.5,96.0 274.2,96.0 275.9,96.0 277.6,96.0 279.3,96.0 281.0,95.0 282.7,95.0 284.5,95.0 286.2,95.0 287.9,95.0 289.6,95.0 291.3,95.0 293.0,95.0 294.7,95.0 296.4,95.0 298.2,95.0 299.9,95.0 301.6,96.0 303.3,96.0 305.0,96.0 306.7,96.0 308.4,96.0 310.2,96.0 311.9,96.0 313.6,96.0 315.3,96.0 317.0,96.0 318.7,97.0 320.4,97.0 322.1,97.0 323.9,97.0 325.6,97.0 327.3,97.0 329.0,98.0 330.7,98.0 332.4,98.0 334.1,98.0 335.9,99.0 337.6,99.0 339.3,99.0 341.0,99.0 342.7,100.0 344.4,100.0 346.1,100.0 347.8,100.0 349.6,101.0 351.3,101.0 353.0,101.0 354.7,102.0 356.4,102.0 358.1,102.0 359.8,103.0 361.6,103.0 363.3,103.0 365.0,104.0 366.7,104.0 368.4,104.0 370.1,105.0 371.8,105.0 373.6,105.0 375.3,106.0 377.0,106.0 378.7,106.0 380.4,107.0 382.1,107.0 383.8,107.0 385.5,108.0 387.3,108.0 389.0,108.0 390.7,109.0 392.4,109.0 394.1,109.0 395.8,110.0 397.5,110.0 399.3,110.0 401.0,111.0 402.7,111.0 404.4,111.0 406.1,112.0 407.8,112.0 409.5,112.0 411.2,112.0 413.0,113.0 414.7,113.0 416.4,113.0 418.1,113.0 419.8,114.0 421.5,114.0 423.2,114.0 425.0,114.0 426.7,114.0 428.4,114.0 430.1,115.0 431.8,115.0 433.5,115.0 435.2,115.0 436.9,115.0 438.7,115.0 440.4,115.0 442.1,115.0 443.8,115.0 445.5,115.0 447.2,115.0 448.9,115.0 450.7,115.0 452.4,115.0 454.1,115.0 455.8,115.0 457.5,115.0 459.2,115.0 460.9,115.0 462.6,115.0 464.4,115.0 466.1,114.0 467.8,114.0 469.5,114.0 471.2,114.0 472.9,114.0 474.6,113.0 476.4,113.0 478.1,113.0 479.8,113.0 481.5,112.0 483.2,112.0 484.9,112.0 486.6,111.0 488.3,111.0 490.1,111.0 491.8,110.0 493.5,110.0 495.2,110.0 496.9,109.0 498.6,109.0 500.3,108.0 502.1,108.0 503.8,108.0 505.5,107.0 507.2,107.0 508.9,106.0 510.6,106.0 512.3,105.0 514.0,105.0 515.8,104.0 517.5,104.0 519.2,103.0 520.9,103.0 522.6,102.0 524.3,102.0 526.0,101.0 527.8,101.0 529.5,100.0 531.2,100.0 532.9,99.0 534.6,99.0 536.3,98.0 538.0,98.0 539.7,97.0 541.5,97.0 543.2,96.0 544.9,96.0 546.6,95.0 548.3,95.0 550.0,94.0 551.7,94.0 553.5,93.0 555.2,93.0 556.9,92.0 558.6,92.0 560.3,91.0 562.0,91.0 563.7,90.0 565.4,90.0 567.2,90.0 568.9,89.0 570.6,89.0 572.3,88.0 574.0,88.0 575.7,88.0 577.4,87.0 579.2,87.0 580.9,87.0 582.6,86.0 584.3,86.0 586.0,86.0 587.7,86.0 589.4,86.0 591.2,85.0 592.9,85.0 594.6,85.0 596.3,85.0 598.0,85.0 599.7,85.0 601.4,85.0 603.1,85.0 604.9,84.0 606.6,84.0 608.3,84.0 610.0,85.0 611.7,85.0 613.4,85.0 615.1,85.0 616.9,85.0 618.6,85.0 620.3,85.0 622.0,85.0 623.7,85.0 625.4,86.0 627.1,86.0 628.8,86.0 630.6,86.0 632.3,87.0 634.0,87.0 635.7,87.0 637.4,88.0 639.1,88.0 640.8,88.0 642.6,89.0 644.3,89.0 646.0,90.0 647.7,90.0 649.4,91.0 651.1,91.0 652.8,92.0 654.5,92.0 656.3,93.0 658.0,93.0 659.7,94.0 661.4,94.0 663.1,95.0 664.8,95.0 666.5,96.0 668.3,97.0 670.0,97.0 671.7,98.0 673.4,99.0 675.1,99.0 676.8,100.0 678.5,100.0 680.2,101.0 682.0,102.0 683.7,102.0 685.4,103.0 687.1,104.0 688.8,105.0 690.5,105.0 692.2,106.0 694.0,107.0 695.7,107.0 697.4,108.0 699.1,109.0 700.8,109.0 702.5,110.0 704.2,111.0 705.9,111.0 707.7,112.0 709.4,113.0 711.1,113.0 712.8,114.0 714.5,114.0 716.2,115.0 717.9,116.0 719.7,116.0 721.4,117.0 723.1,117.0 724.8,118.0 726.5,118.0 728.2,119.0 729.9,119.0 731.6,120.0 733.4,120.0 735.1,121.0 736.8,121.0 738.5,122.0 740.2,122.0 741.9,122.0 743.6,123.0 745.4,123.0 747.1,123.0 748.8,123.0 750.5,124.0 752.2,124.0 753.9,124.0 755.6,124.0 757.3,125.0 759.1,125.0 760.8,125.0 762.5,125.0 764.2,125.0 765.9,125.0 767.6,125.0 769.3,125.0 771.1,125.0 772.8,125.0 774.5,125.0 776.2,125.0 777.9,125.0 779.6,124.0 781.3,124.0 783.1,124.0 784.8,124.0 786.5,123.0 788.2,123.0 789.9,123.0 791.6,123.0 793.3,122.0 795.0,122.0 796.8,121.0 798.5,121.0 800.2,120.0 801.9,120.0 803.6,120.0 805.3,119.0 807.0,118.0 808.8,118.0 810.5,117.0 812.2,117.0 813.9,116.0 815.6,116.0 817.3,115.0 819.0,114.0 820.7,114.0 822.5,113.0 824.2,112.0 825.9,111.0 827.6,111.0 829.3,110.0 831.0,109.0 832.7,108.0 834.5,108.0 836.2,107.0 837.9,106.0 839.6,105.0 841.3,105.0 843.0,104.0 844.7,103.0 846.4,102.0 848.2,101.0 849.9,101.0 851.6,100.0 853.3,99.0 855.0,98.0 856.7,97.0 858.4,96.0 860.2,96.0 861.9,95.0 863.6,94.0 865.3,93.0 867.0,93.0 868.7,92.0 870.4,91.0 872.1,90.0 873.9,90.0 875.6,89.0 877.3,88.0 879.0,87.0" fill="none" stroke="#1565C0" stroke-width="1.2"/>
<text x="64" y="42" fill="#1565C0" font-weight="bold">E (东西)</text>
<text x="876" y="42" text-anchor="end" fill="#555">RMS=238276797.96 cm</text>
<rect x="60" y="28" width="820" height="149" fill="none" stroke="#ccc" stroke-width="1"/>
<rect x="60" y="185" width="820" height="149" fill="#f8f9fa"/>
<line x1="60" y1="185" x2="60" y2="334" stroke="#e0e0e0" stroke-width="0.5"/>
<line x1="78" y1="185" x2="78" y2="334" stroke="#e0e0e0" stroke-width="0.5"/>
<line x1="97" y1="185" x2="97" y2="334" stroke="#e0e0e0" stroke-width="0.5"/>
<line x1="116" y1="185" x2="116" y2="334" stroke="#e0e0e0" stroke-width="0.5"/>
<line x1="135" y1="185" x2="135" y2="334" stroke="#e0e0e0" stroke-width="0.5"/>
<line x1="154" y1="185" x2="154" y2="334" stroke="#e0e0e0" stroke-width="0.5"/>
<line x1="173" y1="185" x2="173" y2="334" stroke="#e0e0e0" stroke-width="0.5"/>
<line x1="191" y1="185" x2="191" y2="334" stroke="#e0e0e0" stroke-width="0.5"/>
<line x1="210" y1="185" x2="210" y2="334" stroke="#e0e0e0" stroke-width="0.5"/>
<line x1="229" y1="185" x2="229" y2="334" stroke="#e0e0e0" stroke-width="0.5"/>
<line x1="248" y1="185" x2="248" y2="334" stroke="#e0e0e0" stroke-width="0.5"/>
<line x1="267" y1="185" x2="267" y2="334" stroke="#e0e0e0" stroke-width="0.5"/>
<line x1="286" y1="185" x2="286" y2="334" stroke="#e0e0e0" stroke-width="0.5"/>
<line x1="305" y1="185" x2="305" y2="334" stroke="#e0e0e0" stroke-width="0.5"/>
<line x1="323" y1="185" x2="323" y2="334" stroke="#e0e0e0" stroke-width="0.5"/>
<line x1="342" y1="185" x2="342" y2="334" stroke="#e0e0e0" stroke-width="0.5"/>
<line x1="361" y1="185" x2="361" y2="334" stroke="#e0e0e0" stroke-width="0.5"/>
<line x1="380" y1="185" x2="380" y2="334" stroke="#e0e0e0" stroke-width="0.5"/>
<line x1="399" y1="185" x2="399" y2="334" stroke="#e0e0e0" stroke-width="0.5"/>
<line x1="418" y1="185" x2="418" y2="334" stroke="#e0e0e0" stroke-width="0.5"/>
<line x1="436" y1="185" x2="436" y2="334" stroke="#e0e0e0" stroke-width="0.5"/>
<line x1="455" y1="185" x2="455" y2="334" stroke="#e0e0e0" stroke-width="0.5"/>
<line x1="474" y1="185" x2="474" y2="334" stroke="#e0e0e0" stroke-width="0.5"/>
<line x1="493" y1="185" x2="493" y2="334" stroke="#e0e0e0" stroke-width="0.5"/>
<line x1="512" y1="185" x2="512" y2="334" stroke="#e0e0e0" stroke-width="0.5"/>
<line x1="531" y1="185" x2="531" y2="334" stroke="#e0e0e0" stroke-width="0.5"/>
<line x1="550" y1="185" x2="550" y2="334" stroke="#e0e0e0" stroke-width="0.5"/>
<line x1="568" y1="185" x2="568" y2="334" stroke="#e0e0e0" stroke-width="0.5"/>
<line x1="587" y1="185" x2="587" y2="334" stroke="#e0e0e0" stroke-width="0.5"/>
<line x1="606" y1="185" x2="606" y2="334" stroke="#e0e0e0" stroke-width="0.5"/>
<line x1="625" y1="185" x2="625" y2="334" stroke="#e0e0e0" stroke-width="0.5"/>
<line x1="644" y1="185" x2="644" y2="334" stroke="#e0e0e0" stroke-width="0.5"/>
<line x1="663" y1="185" x2="663" y2="334" stroke="#e0e0e0" stroke-width="0.5"/>
<line x1="681" y1="185" x2="681" y2="334" stroke="#e0e0e0" stroke-width="0.5"/>
<line x1="700" y1="185" x2="700" y2="334" stroke="#e0e0e0" stroke-width="0.5"/>
<line x1="719" y1="185" x2="719" y2="334" stroke="#e0e0e0" stroke-width="0.5"/>
<line x1="738" y1="185" x2="738" y2="334" stroke="#e0e0e0" stroke-width="0.5"/>
<line x1="757" y1="185" x2="757" y2="334" stroke="#e0e0e0" stroke-width="0.5"/>
<line x1="776" y1="185" x2="776" y2="334" stroke="#e0e0e0" stroke-width="0.5"/>
<line x1="795" y1="185" x2="795" y2="334" stroke="#e0e0e0" stroke-width="0.5"/>
<line x1="813" y1="185" x2="813" y2="334" stroke="#e0e0e0" stroke-width="0.5"/>
<line x1="832" y1="185" x2="832" y2="334" stroke="#e0e0e0" stroke-width="0.5"/>
<line x1="851" y1="185" x2="851" y2="334" stroke="#e0e0e0" stroke-width="0.5"/>
<line x1="870" y1="185" x2="870" y2="334" stroke="#e0e0e0" stroke-width="0.5"/>
<line x1="60" y1="259" x2="880" y2="259" stroke="#999" stroke-width="0.8"/>
<polyline points="60.0,259.0 61.7,258.0 63.4,257.0 65.1,256.0 66.9,255.0 68.6,254.0 70.3,253.0 72.0,252.0 73.7,251.0 75.4,250.0 77.1,249.0 78.8,248.0 80.6,247.0 82.3,246.0 84.0,245.0 85.7,244.0 87.4,244.0 89.1,243.0 90.8,242.0 92.6,241.0 94.3,240.0 96.0,240.0 97.7,239.0 99.4,238.0 101.1,238.0 102.8,237.0 104.5,236.0 106.3,236.0 108.0,235.0 109.7,235.0 111.4,234.0 113.1,234.0 114.8,233.0 116.5,233.0 118.3,232.0 120.0,232.0 121.7,232.0 123.4,231.0 125.1,231.0 126.8,231.0 128.5,231.0 130.2,230.0 132.0,230.0 133.7,230.0 135.4,230.0 137.1,230.0 138.8,230.0 140.5,230.0 142.2,230.0 144.0,230.0 145.7,230.0 147.4,230.0 149.1,231.0 150.8,231.0 152.5,231.0 154.2,231.0 155.9,232.0 157.7,232.0 159.4,232.0 161.1,233.0 162.8,233.0 164.5,234.0 166.2,234.0 167.9,235.0 169.7,235.0 171.4,236.0 173.1,236.0 174.8,237.0 176.5,237.0 178.2,238.0 179.9,239.0 181.7,240.0 183.4,240.0 185.1,241.0 186.8,242.0 188.5,243.0 190.2,243.0 191.9,244.0 193.6,245.0 195.4,246.0 197.1,247.0 198.8,248.0 200.5,249.0 202.2,250.0 203.9,250.0 205.6,251.0 207.4,252.0 209.1,253.0 210.8,254.0 212.5,255.0 214.2,256.0 215.9,257.0 217.6,258.0 219.3,259.0 221.1,260.0 222.8,261.0 224.5,262.0 226.2,263.0 227.9,264.0 229.6,265.0 231.3,266.0 233.1,267.0 234.8,268.0 236.5,269.0 238.2,270.0 239.9,270.0 241.6,271.0 243.3,272.0 245.0,273.0 246.8,274.0 248.5,275.0 250.2,276.0 251.9,276.0 253.6,277.0 255.3,278.0 257.0,279.0 258.8,279.0 260.5,280.0 262.2,281.0 263.9,281.0 265.6,282.0 267.3,283.0 269.0,283.0 270.7,284.0 272.5,284.0 274.2,285.0 275.9,285.0 277.6,286.0 279.3,286.0 281.0,286.0 282.7,287.0 284.5,287.0 286.2,287.0 287.9,288.0 289.6,288.0 291.3,288.0 293.0,288.0 294.7,288.0 296.4,288.0 298.2,288.0 299.9,288.0 301.6,288.0 303.3,288.0 305.0,288.0 306.7,288.0 308.4,288.0 310.2,288.0 311.9,288.0 313.6,287.0 315.3,287.0 317.0,287.0 318.7,287.0 320.4,286.0 322.1,286.0 323.9,285.0 325.6,285.0 327.3,285.0 329.0,284.0 330.7,284.0 332.4,283.0 334.1,283.0 335.9,282.0 337.6,281.0 339.3,281.0 341.0,280.0 342.7,279.0 344.4,279.0 346.1,278.0 347.8,277.0 349.6,276.0 351.3,276.0 353.0,275.0 354.7,274.0 356.4,273.0 358.1,272.0 359.8,272.0 361.6,271.0 363.3,270.0 365.0,269.0 366.7,268.0 368.4,267.0 370.1,266.0 371.8,265.0 373.6,265.0 375.3,264.0 377.0,263.0 378.7,262.0 380.4,261.0 382.1,260.0 383.8,259.0 385.5,258.0 387.3,257.0 389.0,256.0 390.7,255.0 392.4,254.0 394.1,254.0 395.8,253.0 397.5,252.0 399.3,251.0 401.0,250.0 402.7,249.0 404.4,248.0 406.1,248.0 407.8,247.0 409.5,246.0 411.2,245.0 413.0,244.0 414.7,244.0 416.4,243.0 418.1,242.0 419.8,242.0 421.5,241.0 423.2,240.0 425.0,240.0 426.7,239.0 428.4,238.0 430.1,238.0 431.8,237.0 433.5,237.0 435.2,236.0 436.9,236.0 438.7,236.0 440.4,235.0 442.1,235.0 443.8,234.0 445.5,234.0 447.2,234.0 448.9,234.0 450.7,233.0 452.4,233.0 454.1,233.0 455.8,233.0 457.5,233.0 459.2,233.0 460.9,233.0 462.6,233.0 464.4,233.0 466.1,233.0 467.8,233.0 469.5,233.0 471.2,233.0 472.9,233.0 474.6,233.0 476.4,233.0 478.1,234.0 479.8,234.0 481.5,234.0 483.2,235.0 484.9,235.0 486.6,235.0 488.3,236.0 490.1,236.0 491.8,237.0 493.5,237.0 495.2,238.0 496.9,238.0 498.6,239.0 500.3,239.0 502.1,240.0 503.8,240.0 505.5,241.0 507.2,242.0 508.9,242.0 510.6,243.0 512.3,244.0 514.0,244.0 515.8,245.0 517.5,246.0 519.2,247.0 520.9,247.0 522.6,248.0 524.3,249.0 526.0,250.0 527.8,250.0 529.5,251.0 531.2,252.0 532.9,253.0 534.6,254.0 536.3,255.0 538.0,255.0 539.7,256.0 541.5,257.0 543.2,258.0 544.9,259.0 546.6,260.0 548.3,260.0 550.0,261.0 551.7,262.0 553.5,263.0 555.2,264.0 556.9,265.0 558.6,265.0 560.3,266.0 562.0,267.0 563.7,268.0 565.4,269.0 567.2,269.0 568.9,270.0 570.6,271.0 572.3,271.0 574.0,272.0 575.7,273.0 577.4,274.0 579.2,274.0 580.9,275.0 582.6,275.0 584.3,276.0 586.0,277.0 587.7,277.0 589.4,278.0 591.2,278.0 592.9,279.0 594.6,279.0 596.3,280.0 598.0,280.0 599.7,281.0 601.4,281.0 603.1,281.0 604.9,282.0 606.6,282.0 608.3,282.0 610.0,282.0 611.7,283.0 613.4,283.0 615.1,283.0 616.9,283.0 618.6,283.0 620.3,284.0 622.0,284.0 623.7,284.0 625.4,284.0 627.1,284.0 628.8,284.0 630.6,284.0 632.3,284.0 634.0,283.0 635.7,283.0 637.4,283.0 639.1,283.0 640.8,283.0 642.6,283.0 644.3,282.0 646.0,282.0 647.7,282.0 649.4,282.0 651.1,281.0 652.8,281.0 654.5,280.0 656.3,280.0 658.0,280.0 659.7,279.0 661.4,279.0 663.1,278.0 664.8,278.0 666.5,277.0 668.3,277.0 670.0,276.0 671.7,276.0 673.4,275.0 675.1,274.0 676.8,274.0 678.5,273.0 680.2,273.0 682.0,272.0 683.7,271.0 685.4,271.0 687.1,270.0 688.8,269.0 690.5,269.0 692.2,268.0 694.0,267.0 695.7,266.0 697.4,266.0 699.1,265.0 700.8,264.0 702.5,264.0 704.2,263.0 705.9,262.0 707.7,261.0 709.4,261.0 711.1,260.0 712.8,259.0 714.5,258.0 716.2,258.0 717.9,257.0 719.7,256.0 721.4,256.0 723.1,255.0 724.8,254.0 726.5,254.0 728.2,253.0 729.9,252.0 731.6,252.0 733.4,251.0 735.1,250.0 736.8,250.0 738.5,249.0 740.2,248.0 741.9,248.0 743.6,247.0 745.4,247.0 747.1,246.0 748.8,246.0 750.5,245.0 752.2,245.0 753.9,244.0 755.6,244.0 757.3,243.0 759.1,243.0 760.8,243.0 762.5,242.0 764.2,242.0 765.9,241.0 767.6,241.0 769.3,241.0 771.1,241.0 772.8,240.0 774.5,240.0 776.2,240.0 777.9,240.0 779.6,240.0 781.3,239.0 783.1,239.0 784.8,239.0 786.5,239.0 788.2,239.0 789.9,239.0 791.6,239.0 793.3,239.0 795.0,239.0 796.8,239.0 798.5,239.0 800.2,239.0 801.9,239.0 803.6,239.0 805.3,240.0 807.0,240.0 808.8,240.0 810.5,240.0 812.2,240.0 813.9,241.0 815.6,241.0 817.3,241.0 819.0,241.0 820.7,242.0 822.5,242.0 824.2,242.0 825.9,243.0 827.6,243.0 829.3,244.0 831.0,244.0 832.7,244.0 834.5,245.0 836.2,245.0 837.9,246.0 839.6,246.0 841.3,247.0 843.0,247.0 844.7,248.0 846.4,248.0 848.2,249.0 849.9,249.0 851.6,250.0 853.3,250.0 855.0,251.0 856.7,252.0 858.4,252.0 860.2,253.0 861.9,253.0 863.6,254.0 865.3,254.0 867.0,255.0 868.7,256.0 870.4,256.0 872.1,257.0 873.9,257.0 875.6,258.0 877.3,259.0 879.0,259.0" fill="none" stroke="#2E7D32" stroke-width="1.2"/>
<text x="64" y="199" fill="#2E7D32" font-weight="bold">N (南北)</text>
<text x="876" y="199" text-anchor="end" fill="#555">RMS=428208255.72 cm</text>
<rect x="60" y="185" width="820" height="149" fill="none" stroke="#ccc" stroke-width="1"/>
<rect x="60" y="342" width="820" height="149" fill="#f8f9fa"/>
<line x1="60" y1="342" x2="60" y2="491" stroke="#e0e0e0" stroke-width="0.5"/>
<line x1="78" y1="342" x2="78" y2="491" stroke="#e0e0e0" stroke-width="0.5"/>
<line x1="97" y1="342" x2="97" y2="491" stroke="#e0e0e0" stroke-width="0.5"/>
<line x1="116" y1="342" x2="116" y2="491" stroke="#e0e0e0" stroke-width="0.5"/>
<line x1="135" y1="342" x2="135" y2="491" stroke="#e0e0e0" stroke-width="0.5"/>
<line x1="154" y1="342" x2="154" y2="491" stroke="#e0e0e0" stroke-width="0.5"/>
<line x1="173" y1="342" x2="173" y2="491" stroke="#e0e0e0" stroke-width="0.5"/>
<line x1="191" y1="342" x2="191" y2="491" stroke="#e0e0e0" stroke-width="0.5"/>
<line x1="210" y1="342" x2="210" y2="491" stroke="#e0e0e0" stroke-width="0.5"/>
<line x1="229" y1="342" x2="229" y2="491" stroke="#e0e0e0" stroke-width="0.5"/>
<line x1="248" y1="342" x2="248" y2="491" stroke="#e0e0e0" stroke-width="0.5"/>
<line x1="267" y1="342" x2="267" y2="491" stroke="#e0e0e0" stroke-width="0.5"/>
<line x1="286" y1="342" x2="286" y2="491" stroke="#e0e0e0" stroke-width="0.5"/>
<line x1="305" y1="342" x2="305" y2="491" stroke="#e0e0e0" stroke-width="0.5"/>
<line x1="323" y1="342" x2="323" y2="491" stroke="#e0e0e0" stroke-width="0.5"/>
<line x1="342" y1="342" x2="342" y2="491" stroke="#e0e0e0" stroke-width="0.5"/>
<line x1="361" y1="342" x2="361" y2="491" stroke="#e0e0e0" stroke-width="0.5"/>
<line x1="380" y1="342" x2="380" y2="491" stroke="#e0e0e0" stroke-width="0.5"/>
<line x1="399" y1="342" x2="399" y2="491" stroke="#e0e0e0" stroke-width="0.5"/>
<line x1="418" y1="342" x2="418" y2="491" stroke="#e0e0e0" stroke-width="0.5"/>
<line x1="436" y1="342" x2="436" y2="491" stroke="#e0e0e0" stroke-width="0.5"/>
<line x1="455" y1="342" x2="455" y2="491" stroke="#e0e0e0" stroke-width="0.5"/>
<line x1="474" y1="342" x2="474" y2="491" stroke="#e0e0e0" stroke-width="0.5"/>
<line x1="493" y1="342" x2="493" y2="491" stroke="#e0e0e0" stroke-width="0.5"/>
<line x1="512" y1="342" x2="512" y2="491" stroke="#e0e0e0" stroke-width="0.5"/>
<line x1="531" y1="342" x2="531" y2="491" stroke="#e0e0e0" stroke-width="0.5"/>
<line x1="550" y1="342" x2="550" y2="491" stroke="#e0e0e0" stroke-width="0.5"/>
<line x1="568" y1="342" x2="568" y2="491" stroke="#e0e0e0" stroke-width="0.5"/>
<line x1="587" y1="342" x2="587" y2="491" stroke="#e0e0e0" stroke-width="0.5"/>
<line x1="606" y1="342" x2="606" y2="491" stroke="#e0e0e0" stroke-width="0.5"/>
<line x1="625" y1="342" x2="625" y2="491" stroke="#e0e0e0" stroke-width="0.5"/>
<line x1="644" y1="342" x2="644" y2="491" stroke="#e0e0e0" stroke-width="0.5"/>
<line x1="663" y1="342" x2="663" y2="491" stroke="#e0e0e0" stroke-width="0.5"/>
<line x1="681" y1="342" x2="681" y2="491" stroke="#e0e0e0" stroke-width="0.5"/>
<line x1="700" y1="342" x2="700" y2="491" stroke="#e0e0e0" stroke-width="0.5"/>
<line x1="719" y1="342" x2="719" y2="491" stroke="#e0e0e0" stroke-width="0.5"/>
<line x1="738" y1="342" x2="738" y2="491" stroke="#e0e0e0" stroke-width="0.5"/>
<line x1="757" y1="342" x2="757" y2="491" stroke="#e0e0e0" stroke-width="0.5"/>
<line x1="776" y1="342" x2="776" y2="491" stroke="#e0e0e0" stroke-width="0.5"/>
<line x1="795" y1="342" x2="795" y2="491" stroke="#e0e0e0" stroke-width="0.5"/>
<line x1="813" y1="342" x2="813" y2="491" stroke="#e0e0e0" stroke-width="0.5"/>
<line x1="832" y1="342" x2="832" y2="491" stroke="#e0e0e0" stroke-width="0.5"/>
<line x1="851" y1="342" x2="851" y2="491" stroke="#e0e0e0" stroke-width="0.5"/>
<line x1="870" y1="342" x2="870" y2="491" stroke="#e0e0e0" stroke-width="0.5"/>
<line x1="60" y1="416" x2="880" y2="416" stroke="#999" stroke-width="0.8"/>
<polyline points="60.0,417.0 61.7,417.0 63.4,417.0 65.1,417.0 66.9,417.0 68.6,417.0 70.3,417.0 72.0,418.0 73.7,418.0 75.4,418.0 77.1,418.0 78.8,419.0 80.6,419.0 82.3,420.0 84.0,420.0 85.7,421.0 87.4,421.0 89.1,422.0 90.8,422.0 92.6,423.0 94.3,423.0 96.0,424.0 97.7,425.0 99.4,426.0 101.1,426.0 102.8,427.0 104.5,428.0 106.3,429.0 108.0,429.0 109.7,430.0 111.4,431.0 113.1,432.0 114.8,433.0 116.5,434.0 118.3,435.0 120.0,435.0 121.7,436.0 123.4,437.0 125.1,438.0 126.8,439.0 128.5,440.0 130.2,441.0 132.0,442.0 133.7,443.0 135.4,444.0 137.1,445.0 138.8,446.0 140.5,447.0 142.2,448.0 144.0,449.0 145.7,450.0 147.4,451.0 149.1,452.0 150.8,453.0 152.5,454.0 154.2,455.0 155.9,456.0 157.7,457.0 159.4,458.0 161.1,459.0 162.8,459.0 164.5,460.0 166.2,461.0 167.9,462.0 169.7,463.0 171.4,464.0 173.1,464.0 174.8,465.0 176.5,466.0 178.2,467.0 179.9,467.0 181.7,468.0 183.4,469.0 185.1,469.0 186.8,470.0 188.5,470.0 190.2,471.0 191.9,472.0 193.6,472.0 195.4,472.0 197.1,473.0 198.8,473.0 200.5,474.0 202.2,474.0 203.9,474.0 205.6,475.0 207.4,475.0 209.1,475.0 210.8,475.0 212.5,475.0 214.2,476.0 215.9,476.0 217.6,476.0 219.3,476.0 221.1,476.0 222.8,476.0 224.5,476.0 226.2,475.0 227.9,475.0 229.6,475.0 231.3,475.0 233.1,475.0 234.8,474.0 236.5,474.0 238.2,474.0 239.9,473.0 241.6,473.0 243.3,473.0 245.0,472.0 246.8,472.0 248.5,471.0 250.2,471.0 251.9,470.0 253.6,469.0 255.3,469.0 257.0,468.0 258.8,467.0 260.5,467.0 262.2,466.0 263.9,465.0 265.6,464.0 267.3,464.0 269.0,463.0 270.7,462.0 272.5,461.0 274.2,460.0 275.9,459.0 277.6,459.0 279.3,458.0 281.0,457.0 282.7,456.0 284.5,455.0 286.2,454.0 287.9,453.0 289.6,452.0 291.3,451.0 293.0,450.0 294.7,449.0 296.4,448.0 298.2,447.0 299.9,446.0 301.6,445.0 303.3,444.0 305.0,443.0 306.7,442.0 308.4,441.0 310.2,440.0 311.9,439.0 313.6,438.0 315.3,437.0 317.0,436.0 318.7,436.0 320.4,435.0 322.1,434.0 323.9,433.0 325.6,432.0 327.3,431.0 329.0,430.0 330.7,429.0 332.4,429.0 334.1,428.0 335.9,427.0 337.6,426.0 339.3,426.0 341.0,425.0 342.7,424.0 344.4,424.0 346.1,423.0 347.8,422.0 349.6,422.0 351.3,421.0 353.0,421.0 354.7,420.0 356.4,420.0 358.1,419.0 359.8,419.0 361.6,419.0 363.3,418.0 365.0,418.0 366.7,418.0 368.4,418.0 370.1,417.0 371.8,417.0 373.6,417.0 375.3,417.0 377.0,417.0 378.7,417.0 380.4,417.0 382.1,417.0 383.8,417.0 385.5,417.0 387.3,417.0 389.0,417.0 390.7,417.0 392.4,418.0 394.1,418.0 395.8,418.0 397.5,419.0 399.3,419.0 401.0,419.0 402.7,420.0 404.4,420.0 406.1,421.0 407.8,421.0 409.5,422.0 411.2,422.0 413.0,423.0 414.7,423.0 416.4,424.0 418.1,425.0 419.8,425.0 421.5,426.0 423.2,427.0 425.0,428.0 426.7,428.0 428.4,429.0 430.1,430.0 431.8,431.0 433.5,432.0 435.2,432.0 436.9,433.0 438.7,434.0 440.4,435.0 442.1,436.0 443.8,437.0 445.5,438.0 447.2,439.0 448.9,440.0 450.7,441.0 452.4,442.0 454.1,443.0 455.8,444.0 457.5,445.0 459.2,446.0 460.9,447.0 462.6,448.0 464.4,449.0 466.1,450.0 467.8,451.0 469.5,451.0 471.2,452.0 472.9,453.0 474.6,454.0 476.4,455.0 478.1,456.0 479.8,457.0 481.5,458.0 483.2,459.0 484.9,460.0 486.6,461.0 488.3,461.0 490.1,462.0 491.8,463.0 493.5,464.0 495.2,465.0 496.9,465.0 498.6,466.0 500.3,467.0 502.1,467.0 503.8,468.0 505.5,469.0 507.2,469.0 508.9,470.0 510.6,470.0 512.3,471.0 514.0,471.0 515.8,472.0 517.5,472.0 519.2,473.0 520.9,473.0 522.6,473.0 524.3,474.0 526.0,474.0 527.8,474.0 529.5,474.0 531.2,475.0 532.9,475.0 534.6,475.0 536.3,475.0 538.0,475.0 539.7,475.0 541.5,475.0 543.2,475.0 544.9,475.0 546.6,475.0 548.3,475.0 550.0,474.0 551.7,474.0 553.5,474.0 555.2,474.0 556.9,473.0 558.6,473.0 560.3,473.0 562.0,472.0 563.7,472.0 565.4,471.0 567.2,471.0 568.9,470.0 570.6,470.0 572.3,469.0 574.0,469.0 575.7,468.0 577.4,467.0 579.2,467.0 580.9,466.0 582.6,465.0 584.3,465.0 586.0,464.0 587.7,463.0 589.4,462.0 591.2,461.0 592.9,461.0 594.6,460.0 596.3,459.0 598.0,458.0 599.7,457.0 601.4,456.0 603.1,455.0 604.9,454.0 606.6,453.0 608.3,452.0 610.0,452.0 611.7,451.0 613.4,450.0 615.1,449.0 616.9,448.0 618.6,447.0 620.3,446.0 622.0,445.0 623.7,444.0 625.4,443.0 627.1,442.0 628.8,441.0 630.6,440.0 632.3,439.0 634.0,438.0 635.7,437.0 637.4,436.0 639.1,435.0 640.8,434.0 642.6,434.0 644.3,433.0 646.0,432.0 647.7,431.0 649.4,430.0 651.1,429.0 652.8,429.0 654.5,428.0 656.3,427.0 658.0,426.0 659.7,426.0 661.4,425.0 663.1,424.0 664.8,424.0 666.5,423.0 668.3,423.0 670.0,422.0 671.7,422.0 673.4,421.0 675.1,421.0 676.8,420.0 678.5,420.0 680.2,420.0 682.0,419.0 683.7,419.0 685.4,419.0 687.1,418.0 688.8,418.0 690.5,418.0 692.2,418.0 694.0,418.0 695.7,418.0 697.4,418.0 699.1,418.0 700.8,418.0 702.5,418.0 704.2,418.0 705.9,418.0 707.7,418.0 709.4,418.0 711.1,418.0 712.8,419.0 714.5,419.0 716.2,419.0 717.9,420.0 719.7,420.0 721.4,420.0 723.1,421.0 724.8,421.0 726.5,422.0 728.2,422.0 729.9,423.0 731.6,423.0 733.4,424.0 735.1,425.0 736.8,425.0 738.5,426.0 740.2,427.0 741.9,427.0 743.6,428.0 745.4,429.0 747.1,430.0 748.8,430.0 750.5,431.0 752.2,432.0 753.9,433.0 755.6,434.0 757.3,435.0 759.1,436.0 760.8,436.0 762.5,437.0 764.2,438.0 765.9,439.0 767.6,440.0 769.3,441.0 771.1,442.0 772.8,443.0 774.5,444.0 776.2,445.0 777.9,446.0 779.6,447.0 781.3,448.0 783.1,449.0 784.8,450.0 786.5,451.0 788.2,452.0 789.9,453.0 791.6,453.0 793.3,454.0 795.0,455.0 796.8,456.0 798.5,457.0 800.2,458.0 801.9,459.0 803.6,460.0 805.3,460.0 807.0,461.0 808.8,462.0 810.5,463.0 812.2,464.0 813.9,464.0 815.6,465.0 817.3,466.0 819.0,466.0 820.7,467.0 822.5,468.0 824.2,468.0 825.9,469.0 827.6,469.0 829.3,470.0 831.0,470.0 832.7,471.0 834.5,471.0 836.2,472.0 837.9,472.0 839.6,472.0 841.3,473.0 843.0,473.0 844.7,473.0 846.4,474.0 848.2,474.0 849.9,474.0 851.6,474.0 853.3,474.0 855.0,474.0 856.7,474.0 858.4,474.0 860.2,474.0 861.9,474.0 863.6,474.0 865.3,474.0 867.0,474.0 868.7,473.0 870.4,473.0 872.1,473.0 873.9,473.0 875.6,472.0 877.3,472.0 879.0,472.0" fill="none" stroke="#C62828" stroke-width="1.2"/>
<text x="64" y="356" fill="#C62828" font-weight="bold">U (垂直)</text>
<text x="876" y="356" text-anchor="end" fill="#555">RMS=851087437.12 cm</text>
<rect x="60" y="342" width="820" height="149" fill="none" stroke="#ccc" stroke-width="1"/>
<text x="450" y="512" text-anchor="middle" font-size="12" fill="#333">2024-05-01 4h | 3D RMS=982083483.39 cm (479 epochs)</text>
</svg>