<svg xmlns="http://www.w3.org/2000/svg" width="900" height="520" font-family="DejaVu Sans,sans-serif" font-size="11"><rect width="900" height="520" fill="white"/>
<rect x="60" y="28" width="820" height="149" fill="#f8f9fa"/>
<line x1="60" y1="28" x2="60" y2="177" stroke="#e0e0e0" stroke-width="0.5"/>
<line x1="78" y1="28" x2="78" y2="177" stroke="#e0e0e0" stroke-width="0.5"/>
<line x1="97" y1="28" x2="97" y2="177" stroke="#e0e0e0" stroke-width="0.5"/>
<line x1="116" y1="28" x2="116" y2="177" stroke="#e0e0e0" stroke-width="0.5"/>
<line x1="135" y1="28" x2="135" y2="177" stroke="#e0e0e0" stroke-width="0.5"/>
<line x1="154" y1="28" x2="154" y2="177" stroke="#e0e0e0" stroke-width="0.5"/>
<line x1="173" y1="28" x2="173" y2="177" stroke="#e0e0e0" stroke-width="0.5"/>
<line x1="191" y1="28" x2="191" y2="177" stroke="#e0e0e0" stroke-width="0.5"/>
<line x1="210" y1="28" x2="210" y2="177" stroke="#e0e0e0" stroke-width="0.5"/>
<line x1="229" y1="28" x2="229" y2="177" stroke="#e0e0e0" stroke-width="0.5"/>
<line x1="248" y1="28" x2="248" y2="177" stroke="#e0e0e0" stroke-width="0.5"/>
<line x1="267" y1="28" x2="267" y2="177" stroke="#e0e0e0" stroke-width="0.5"/>
<line x1="286" y1="28" x2="286" y2="177" stroke="#e0e0e0" stroke-width="0.5"/>
<line x1="305" y1="28" x2="305" y2="177" stroke="#e0e0e0" stroke-width="0.5"/>
<line x1="323" y1="28" x2="323" y2="177" stroke="#e0e0e0" stroke-width="0.5"/>
<line x1="342" y1="28" x2="342" y2="177" stroke="#e0e0e0" stroke-width="0.5"/>
<line x1="361" y1="28" x2="361" y2="177" stroke="#e0e0e0" stroke-width="0.5"/>
<line x1="380" y1="28" x2="380" y2="177" stroke="#e0e0e0" stroke-width="0.5"/>
<line x1="399" y1="28" x2="399" y2="177" stroke="#e0e0e0" stroke-width="0.5"/>
<line x1="418" y1="28" x2="418" y2="177" stroke="#e0e0e0" stroke-width="0.5"/>
<line x1="436" y1="28" x2="436" y2="177" stroke="#e0e0e0" stroke-width="0.5"/>
<line x1="455" y1="28" x2="455" y2="177" stroke="#e0e0e0" stroke-width="0.5"/>
<line x1="474" y1="28" x2="474" y2="177" stroke="#e0e0e0" stroke-width="0.5"/>
<line x1="493" y1="28" x2="493" y2="177" stroke="#e0e0e0" stroke-width="0.5"/>
<line x1="512" y1="28" x2="512" y2="177" stroke="#e0e0e0" stroke-width="0.5"/>
<line x1="531" y1="28" x2="531" y2="177" stroke="#e0e0e0" stroke-width="0.5"/>
<line x1="550" y1="28" x2="550" y2="177" stroke="#e0e0e0" stroke-width="0.5"/>
<line x1="568" y1="28" x2="568" y2="177" stroke="#e0e0e0" stroke-width="0.5"/>
<line x1="587" y1="28" x2="587" y2="177" stroke="#e0e0e0" stroke-width="0.5"/>
<line x1="606" y1="28" x2="606" y2="177" stroke="#e0e0e0" stroke-width="0.5"/>
<line x1="625" y1="28" x2="625" y2="177" stroke="#e0e0e0" stroke-width="0.5"/>
<line x1="644" y1="28" x2="644" y2="177" stroke="#e0e0e0" stroke-width="0.5"/>
<line x1="663" y1="28" x2="663" y2="177" stroke="#e0e0e0" stroke-width="0.5"/>
<line x1="681" y1="28" x2="681" y2="177" stroke="#e0e0e0" stroke-width="0.5"/>
<line x1="700" y1="28" x2="700" y2="177" stroke="#e0e0e0" stroke-width="0.5"/>
<line x1="719" y1="28" x2="719" y2="177" stroke="#e0e0e0" stroke-width="0.5"/>
<line x1="738" y1="28" x2="738" y2="177" stroke="#e0e0e0" stroke-width="0.5"/>
<line x1="757" y1="28" x2="757" y2="177" stroke="#e0e0e0" stroke-width="0.5"/>
<line x1="776" y1="28" x2="776" y2="177" stroke="#e0e0e0" stroke-width="0.5"/>
<line x1="795" y1="28" x2="795" y2="177" stroke="#e0e0e0" stroke-width="0.5"/>
<line x1="813" y1="28" x2="813" y2="177" stroke="#e0e0e0" stroke-width="0.5"/>
<line x1="832" y1="28" x2="832" y2="177" stroke="#e0e0e0" stroke-width="0.5"/>
<line x1="851" y1="28" x2="851" y2="177" stroke="#e0e0e0" stroke-width="0.5"/>
<line x1="870" y1="28" x2="870" y2="177" stroke="#e0e0e0" stroke-width="0.5"/>
<line x1="60" y1="102" x2="880" y2="102" stroke="#999" stroke-width="0.8"/>
<polyline points="60.0,103.0 61.7,103.0 63.4,103.0 65.1,103.0 66.9,103.0 68.6,103.0 70.3,103.0 72.0,103.0 73.7,103.0 75.4,103.0 77.1,103.0 78.8,103.0 80.6,103.0 82.3,103.0 84.0,103.0 85.7,103.0 87.4,103.0 89.1,103.0 90.8,103.0 92.6,103.0 94.3,103.0 96.0,103.0 97.7,103.0 99.4,103.0 101.1,103.0 102.8,103.0 104.5,103.0 106.3,103.0 108.0,103.0 109.7,103.0 111.4,103.0 113.1,103.0 114.8,103.0 116.5,103.0 118.3,102.0 120.0,102.0 121.7,102.0 123.4,102.0 125.1,102.0 126.8,102.0 128.5,102.0 130.2,102.0 132.0,102.0 133.7,102.0 135.4,102.0 137.1,101.0 138.8,101.0 140.5,101.0 142.2,101.0 144.0,101.0 145.7,101.0 147.4,101.0 149.1,101.0 150.8,101.0 152.5,100.0 154.2,100.0 155.9,100.0 157.7,100.0 159.4,100.0 161.1,100.0 162.8,100.0 164.5,99.0 166.2,99.0 167.9,99.0 169.7,99.0 171.4,99.0 173.1,99.0 174.8,99.0 176.5,98.0 178.2,98.0 179.9,98.0 181.7,98.0 183.4,98.0 185.1,98.0 186.8,98.0 188.5,98.0 190.2,98.0 191.9,97.0 193.6,97.0 195.4,97.0 197.1,97.0 198.8,97.0 200.5,97.0 202.2,97.0 203.9,97.0 205.6,97.0 207.4,97.0 209.1,97.0 210.8,97.0 212.5,97.0 214.2,97.0 215.9,97.0 217.6,97.0 219.3,96.0 221.1,96.0 222.8,96.0 224.5,97.0 226.2,97.0 227.9,97.0 229.6,97.0 231.3,97.0 233.1,97.0 234.8,97.0 236.5,97.0 238.2,97.0 239.9,97.0 241.6,97.0 243.3,97.0 245.0,97.0 246.8,97.0 248.5,98.0 250.2,98.0 251.9,98.0 253.6,98.0 255.3,98.0 257.0,98.0 258.8,99.0 260.5,99.0 262.2,99.0 263.9,99.0 265.6,99.0 267.3,100.0 269.0,100.0 270.7,100.0 272.5,100.0 274.2,100.0 275.9,101.0 277.6,101.0 279.3,101.0 281.0,101.0 282.7,102.0 284.5,102.0 286.2,102.0 287.9,103.0 289.6,103.0 291.3,103.0 293.0,103.0 294.7,104.0 296.4,104.0 298.2,104.0 299.9,105.0 301.6,105.0 303.3,105.0 305.0,106.0 306.7,106.0 308.4,106.0 310.2,107.0 311.9,107.0 313.6,107.0 315.3,108.0 317.0,108.0 318.7,108.0 320.4,108.0 322.1,109.0 323.9,109.0 325.6,109.0 327.3,110.0 329.0,110.0 330.7,110.0 332.4,110.0 334.1,111.0 335.9,111.0 337.6,111.0 339.3,111.0 341.0,112.0 342.7,112.0 344.4,112.0 346.1,112.0 347.8,113.0 349.6,113.0 351.3,113.0 353.0,113.0 354.7,113.0 356.4,113.0 358.1,114.0 359.8,114.0 361.6,114.0 363.3,114.0 365.0,114.0 366.7,114.0 368.4,114.0 370.1,114.0 371.8,114.0 373.6,114.0 375.3,114.0 377.0,114.0 378.7,114.0 380.4,114.0 382.1,114.0 383.8,114.0 385.5,114.0 387.3,114.0 389.0,114.0 390.7,114.0 392.4,114.0 394.1,114.0 395.8,113.0 397.5,113.0 399.3,113.0 401.0,113.0 402.7,113.0 404.4,112.0 406.1,112.0 407.8,112.0 409.5,112.0 411.2,111.0 413.0,111.0 414.7,111.0 416.4,111.0 418.1,110.0 419.8,110.0 421.5,110.0 423.2,109.0 425.0,109.0 426.7,108.0 428.4,108.0 430.1,108.0 431.8,107.0 433.5,107.0 435.2,106.0 436.9,106.0 438.7,106.0 440.4,105.0 442.1,105.0 443.8,104.0 445.5,104.0 447.2,103.0 448.9,103.0 450.7,102.0 452.4,102.0 454.1,101.0 455.8,101.0 457.5,100.0 459.2,100.0 460.9,99.0 462.6,99.0 464.4,98.0 466.1,98.0 467.8,97.0 469.5,97.0 471.2,96.0 472.9,96.0 474.6,95.0 476.4,95.0 478.1,95.0 479.8,94.0 481.5,94.0 483.2,93.0 484.9,93.0 486.6,92.0 488.3,92.0 490.1,91.0 491.8,91.0 493.5,91.0 495.2,90.0 496.9,90.0 498.6,90.0 500.3,89.0 502.1,89.0 503.8,89.0 505.5,88.0 507.2,88.0 508.9,88.0 510.6,87.0 512.3,87.0 514.0,87.0 515.8,87.0 517.5,86.0 519.2,86.0 520.9,86.0 522.6,86.0 524.3,86.0 526.0,86.0 527.8,86.0 529.5,85.0 531.2,85.0 532.9,85.0 534.6,85.0 536.3,85.0 538.0,85.0 539.7,85.0 541.5,85.0 543.2,86.0 544.9,86.0 546.6,86.0 548.3,86.0 550.0,86.0 551.7,86.0 553.5,86.0 555.2,87.0 556.9,87.0 558.6,87.0 560.3,87.0 562.0,88.0 563.7,88.0 565.4,88.0 567.2,89.0 568.9,89.0 570.6,89.0 572.3,90.0 574.0,90.0 575.7,91.0 577.4,91.0 579.2,91.0 580.9,92.0 582.6,92.0 584.3,93.0 586.0,93.0 587.7,94.0 589.4,94.0 591.2,95.0 592.9,96.0 594.6,96.0 596.3,97.0 598.0,97.0 599.7,98.0 601.4,99.0 603.1,99.0 604.9,100.0 606.6,100.0 608.3,101.0 610.0,102.0 611.7,102.0 613.4,103.0 615.1,104.0 616.9,104.0 618.6,105.0 620.3,106.0 622.0,106.0 623.7,107.0 625.4,108.0 627.1,108.0 628.8,109.0 630.6,110.0 632.3,110.0 634.0,111.0 635.7,111.0 637.4,112.0 639.1,113.0 640.8,113.0 642.6,114.0 644.3,114.0 646.0,115.0 647.7,116.0 649.4,116.0 651.1,117.0 652.8,117.0 654.5,118.0 656.3,118.0 658.0,119.0 659.7,119.0 661.4,120.0 663.1,120.0 664.8,120.0 666.5,121.0 668.3,121.0 670.0,122.0 671.7,122.0 673.4,122.0 675.1,122.0 676.8,123.0 678.5,123.0 680.2,123.0 682.0,123.0 683.7,124.0 685.4,124.0 687.1,124.0 688.8,124.0 690.5,124.0 692.2,124.0 694.0,124.0 695.7,124.0 697.4,124.0 699.1,124.0 700.8,124.0 702.5,124.0 704.2,124.0 705.9,124.0 707.7,124.0 709.4,124.0 711.1,123.0 712.8,123.0 714.5,123.0 716.2,123.0 717.9,122.0 719.7,122.0 721.4,122.0 723.1,121.0 724.8,121.0 726.5,120.0 728.2,120.0 729.9,120.0 731.6,119.0 733.4,119.0 735.1,118.0 736.8,118.0 738.5,117.0 740.2,116.0 741.9,116.0 743.6,115.0 745.4,115.0 747.1,114.0 748.8,113.0 750.5,113.0 752.2,112.0 753.9,111.0 755.6,111.0 757.3,110.0 759.1,109.0 760.8,108.0 762.5,108.0 764.2,107.0 765.9,106.0 767.6,105.0 769.3,105.0 771.1,104.0 772.8,103.0 774.5,102.0 776.2,101.0 777.9,101.0 779.6,100.0 781.3,99.0 783.1,98.0 784.8,97.0 786.5,97.0 788.2,96.0 789.9,95.0 791.6,94.0 793.3,94.0 795.0,93.0 796.8,92.0 798.5,91.0 800.2,91.0 801.9,90.0 803.6,89.0 805.3,89.0 807.0,88.0 808.8,87.0 810.5,87.0 812.2,86.0 813.9,85.0 815.6,85.0 817.3,84.0 819.0,83.0 820.7,83.0 822.5,82.0 824.2,82.0 825.9,81.0 827.6,81.0 829.3,81.0 831.0,80.0 832.7,80.0 834.5,79.0 836.2,79.0 837.9,79.0 839.6,78.0 841.3,78.0 843.0,78.0 844.7,78.0 846.4,77.0 848.2,77.0 849.9,77.0 851.6,77.0 853.3,77.0 855.0,77.0 856.7,77.0 858.4,77.0 860.2,77.0 861.9,77.0 863.6,77.0 865.3,77.0 867.0,77.0 868.7,78.0 870.4,78.0 872.1,78.0 873.9,78.0 875.6,79.0 877.3,79.0 879.0,79.0" fill="none" stroke="#1565C0" stroke-width="1.2"/>
<text x="64" y="42" fill="#1565C0" font-weight="bold">E (东西)</text>
<text x="876" y="42" text-anchor="end" fill="#555">RMS=273312863.73 cm</text>
<rect x="60" y="28" width="820" height="149" fill="none" stroke="#ccc" stroke-width="1"/>
<rect x="60" y="185" width="820" height="149" fill="#f8f9fa"/>
<line x1="60" y1="185" x2="60" y2="334" stroke="#e0e0e0" stroke-width="0.5"/>
<line x1="78" y1="185" x2="78" y2="334" stroke="#e0e0e0" stroke-width="0.5"/>
<line x1="97" y1="185" x2="97" y2="334" stroke="#e0e0e0" stroke-width="0.5"/>
<line x1="116" y1="185" x2="116" y2="334" stroke="#e0e0e0" stroke-width="0.5"/>
<line x1="135" y1="185" x2="135" y2="334" stroke="#e0e0e0" stroke-width="0.5"/>
<line x1="154" y1="185" x2="154" y2="334" stroke="#e0e0e0" stroke-width="0.5"/>
<line x1="173" y1="185" x2="173" y2="334" stroke="#e0e0e0" stroke-width="0.5"/>
<line x1="191" y1="185" x2="191" y2="334" stroke="#e0e0e0" stroke-width="0.5"/>
<line x1="210" y1="185" x2="210" y2="334" stroke="#e0e0e0" stroke-width="0.5"/>
<line x1="229" y1="185" x2="229" y2="334" stroke="#e0e0e0" stroke-width="0.5"/>
<line x1="248" y1="185" x2="248" y2="334" stroke="#e0e0e0" stroke-width="0.5"/>
<line x1="267" y1="185" x2="267" y2="334" stroke="#e0e0e0" stroke-width="0.5"/>
<line x1="286" y1="185" x2="286" y2="334" stroke="#e0e0e0" stroke-width="0.5"/>
<line x1="305" y1="185" x2="305" y2="334" stroke="#e0e0e0" stroke-width="0.5"/>
<line x1="323" y1="185" x2="323" y2="334" stroke="#e0e0e0" stroke-width="0.5"/>
<line x1="342" y1="185" x2="342" y2="334" stroke="#e0e0e0" stroke-width="0.5"/>
<line x1="361" y1="185" x2="361" y2="334" stroke="#e0e0e0" stroke-width="0.5"/>
<line x1="380" y1="185" x2="380" y2="334" stroke="#e0e0e0" stroke-width="0.5"/>
<line x1="399" y1="185" x2="399" y2="334" stroke="#e0e0e0" stroke-width="0.5"/>
<line x1="418" y1="185" x2="418" y2="334" stroke="#e0e0e0" stroke-width="0.5"/>
<line x1="436" y1="185" x2="436" y2="334" stroke="#e0e0e0" stroke-width="0.5"/>
<line x1="455" y1="185" x2="455" y2="334" stroke="#e0e0e0" stroke-width="0.5"/>
<line x1="474" y1="185" x2="474" y2="334" stroke="#e0e0e0" stroke-width="0.5"/>
<line x1="493" y1="185" x2="493" y2="334" stroke="#e0e0e0" stroke-width="0.5"/>
<line x1="512" y1="185" x2="512" y2="334" stroke="#e0e0e0" stroke-width="0.5"/>
<line x1="531" y1="185" x2="531" y2="334" stroke="#e0e0e0" stroke-width="0.5"/>
<line x1="550" y1="185" x2="550" y2="334" stroke="#e0e0e0" stroke-width="0.5"/>
<line x1="568" y1="185" x2="568" y2="334" stroke="#e0e0e0" stroke-width="0.5"/>
<line x1="587" y1="185" x2="587" y2="334" stroke="#e0e0e0" stroke-width="0.5"/>
<line x1="606" y1="185" x2="606" y2="334" stroke="#e0e0e0" stroke-width="0.5"/>
<line x1="625" y1="185" x2="625" y2="334" stroke="#e0e0e0" stroke-width="0.5"/>
<line x1="644" y1="185" x2="644" y2="334" stroke="#e0e0e0" stroke-width="0.5"/>
<line x1="663" y1="185" x2="663" y2="334" stroke="#e0e0e0" stroke-width="0.5"/>
<line x1="681" y1="185" x2="681" y2="334" stroke="#e0e0e0" stroke-width="0.5"/>
<line x1="700" y1="185" x2="700" y2="334" stroke="#e0e0e0" stroke-width="0.5"/>
<line x1="719" y1="185" x2="719" y2="334" stroke="#e0e0e0" stroke-width="0.5"/>
<line x1="738" y1="185" x2="738" y2="334" stroke="#e0e0e0" stroke-width="0.5"/>
<line x1="757" y1="185" x2="757" y2="334" stroke="#e0e0e0" stroke-width="0.5"/>
<line x1="776" y1="185" x2="776" y2="334" stroke="#e0e0e0" stroke-width="0.5"/>
<line x1="795" y1="185" x2="795" y2="334" stroke="#e0e0e0" stroke-width="0.5"/>
<line x1="813" y1="185" x2="813" y2="334" stroke="#e0e0e0" stroke-width="0.5"/>
<line x1="832" y1="185" x2="832" y2="334" stroke="#e0e0e0" stroke-width="0.5"/>
<line x1="851" y1="185" x2="851" y2="334" stroke="#e0e0e0" stroke-width="0.5"/>
<line x1="870" y1="185" x2="870" y2="334" stroke="#e0e0e0" stroke-width="0.5"/>
<line x1="60" y1="259" x2="880" y2="259" stroke="#999" stroke-width="0.8"/>
<polyline points="60.0,260.0 61.7,261.0 63.4,262.0 65.1,263.0 66.9,264.0 68.6,265.0 70.3,266.0 72.0,267.0 73.7,268.0 75.4,269.0 77.1,270.0 78.8,271.0 80.6,272.0 82.3,273.0 84.0,274.0 85.7,275.0 87.4,276.0 89.1,276.0 90.8,277.0 92.6,278.0 94.3,279.0 96.0,280.0 97.7,280.0 99.4,281.0 101.1,282.0 102.8,282.0 104.5,283.0 106.3,284.0 108.0,284.0 109.7,285.0 111.4,285.0 113.1,286.0 114.8,286.0 116.5,287.0 118.3,287.0 120.0,287.0 121.7,288.0 123.4,288.0 125.1,288.0 126.8,289.0 128.5,289.0 130.2,289.0 132.0,289.0 133.7,289.0 135.4,289.0 137.1,289.0 138.8,289.0 140.5,289.0 142.2,289.0 144.0,289.0 145.7,289.0 147.4,289.0 149.1,289.0 150.8,289.0 152.5,288.0 154.2,288.0 155.9,288.0 157.7,287.0 159.4,287.0 161.1,287.0 162.8,286.0 164.5,286.0 166.2,285.0 167.9,285.0 169.7,284.0 171.4,284.0 173.1,283.0 174.8,282.0 176.5,282.0 178.2,281.0 179.9,280.0 181.7,280.0 183.4,279.0 185.1,278.0 186.8,277.0 188.5,277.0 190.2,276.0 191.9,275.0 193.6,274.0 195.4,273.0 197.1,272.0 198.8,271.0 200.5,270.0 202.2,270.0 203.9,269.0 205.6,268.0 207.4,267.0 209.1,266.0 210.8,265.0 212.5,264.0 214.2,263.0 215.9,262.0 217.6,261.0 219.3,260.0 221.1,259.0 222.8,258.0 224.5,257.0 226.2,256.0 227.9,255.0 229.6,254.0 231.3,253.0 233.1,252.0 234.8,251.0 236.5,250.0 238.2,249.0 239.9,248.0 241.6,247.0 243.3,246.0 245.0,245.0 246.8,244.0 248.5,244.0 250.2,243.0 251.9,242.0 253.6,241.0 255.3,240.0 257.0,240.0 258.8,239.0 260.5,238.0 262.2,238.0 263.9,237.0 265.6,236.0 267.3,236.0 269.0,235.0 270.7,235.0 272.5,234.0 274.2,233.0 275.9,233.0 277.6,233.0 279.3,232.0 281.0,232.0 282.7,231.0 284.5,231.0 286.2,231.0 287.9,231.0 289.6,230.0 291.3,230.0 293.0,230.0 294.7,230.0 296.4,230.0 298.2,230.0 299.9,230.0 301.6,230.0 303.3,230.0 305.0,230.0 306.7,230.0 308.4,230.0 310.2,230.0 311.9,231.0 313.6,231.0 315.3,231.0 317.0,231.0 318.7,232.0 320.4,232.0 322.1,232.0 323.9,233.0 325.6,233.0 327.3,234.0 329.0,234.0 330.7,235.0 332.4,235.0 334.1,236.0 335.9,237.0 337.6,237.0 339.3,238.0 341.0,239.0 342.7,239.0 344.4,240.0 346.1,241.0 347.8,242.0 349.6,243.0 351.3,243.0 353.0,244.0 354.7,245.0 356.4,246.0 358.1,247.0 359.8,248.0 361.6,249.0 363.3,250.0 365.0,251.0 366.7,252.0 368.4,253.0 370.1,254.0 371.8,255.0 373.6,256.0 375.3,257.0 377.0,257.0 378.7,258.0 380.4,259.0 382.1,260.0 383.8,261.0 385.5,262.0 387.3,263.0 389.0,264.0 390.7,265.0 392.4,266.0 394.1,267.0 395.8,268.0 397.5,269.0 399.3,270.0 401.0,271.0 402.7,272.0 404.4,273.0 406.1,274.0 407.8,275.0 409.5,276.0 411.2,276.0 413.0,277.0 414.7,278.0 416.4,279.0 418.1,279.0 419.8,280.0 421.5,281.0 423.2,282.0 425.0,282.0 426.7,283.0 428.4,283.0 430.1,284.0 431.8,285.0 433.5,285.0 435.2,286.0 436.9,286.0 438.7,287.0 440.4,287.0 442.1,287.0 443.8,288.0 445.5,288.0 447.2,288.0 448.9,288.0 450.7,289.0 452.4,289.0 454.1,289.0 455.8,289.0 457.5,289.0 459.2,289.0 460.9,289.0 462.6,289.0 464.4,289.0 466.1,289.0 467.8,289.0 469.5,289.0 471.2,289.0 472.9,288.0 474.6,288.0 476.4,288.0 478.1,288.0 479.8,287.0 481.5,287.0 483.2,286.0 484.9,286.0 486.6,285.0 488.3,285.0 490.1,284.0 491.8,284.0 493.5,283.0 495.2,283.0 496.9,282.0 498.6,281.0 500.3,281.0 502.1,280.0 503.8,279.0 505.5,279.0 507.2,278.0 508.9,277.0 510.6,276.0 512.3,275.0 514.0,274.0 515.8,274.0 517.5,273.0 519.2,272.0 520.9,271.0 522.6,270.0 524.3,269.0 526.0,268.0 527.8,267.0 529.5,266.0 531.2,265.0 532.9,264.0 534.6,263.0 536.3,262.0 538.0,261.0 539.7,260.0 541.5,259.0 543.2,258.0 544.9,257.0 546.6,256.0 548.3,255.0 550.0,254.0 551.7,253.0 553.5,252.0 555.2,251.0 556.9,250.0 558.6,250.0 560.3,249.0 562.0,248.0 563.7,247.0 565.4,246.0 567.2,245.0 568.9,244.0 570.6,243.0 572.3,242.0 574.0,242.0 575.7,241.0 577.4,240.0 579.2,239.0 580.9,239.0 582.6,238.0 584.3,237.0 586.0,237.0 587.7,236.0 589.4,235.0 591.2,235.0 592.9,234.0 594.6,234.0 596.3,233.0 598.0,233.0 599.7,233.0 601.4,232.0 603.1,232.0 604.9,231.0 606.6,231.0 608.3,231.0 610.0,231.0 611.7,230.0 613.4,230.0 615.1,230.0 616.9,230.0 618.6,230.0 620.3,230.0 622.0,230.0 623.7,230.0 625.4,230.0 627.1,230.0 628.8,230.0 630.6,231.0 632.3,231.0 634.0,231.0 635.7,231.0 637.4,232.0 639.1,232.0 640.8,232.0 642.6,233.0 644.3,233.0 646.0,233.0 647.7,234.0 649.4,234.0 651.1,235.0 652.8,236.0 654.5,236.0 656.3,237.0 658.0,237.0 659.7,238.0 661.4,239.0 663.1,240.0 664.8,240.0 666.5,241.0 668.3,242.0 670.0,243.0 671.7,243.0 673.4,244.0 675.1,245.0 676.8,246.0 678.5,247.0 680.2,248.0 682.0,249.0 683.7,250.0 685.4,251.0 687.1,252.0 688.8,253.0 690.5,253.0 692.2,254.0 694.0,255.0 695.7,256.0 697.4,257.0 699.1,258.0 700.8,259.0 702.5,260.0 704.2,261.0 705.9,262.0 707.7,263.0 709.4,264.0 711.1,265.0 712.8,266.0 714.5,267.0 716.2,268.0 717.9,269.0 719.7,270.0 721.4,271.0 723.1,272.0 724.8,273.0 726.5,274.0 728.2,275.0 729.9,275.0 731.6,276.0 733.4,277.0 735.1,278.0 736.8,279.0 738.5,279.0 740.2,280.0 741.9,281.0 743.6,281.0 745.4,282.0 747.1,283.0 748.8,283.0 750.5,284.0 752.2,284.0 753.9,285.0 755.6,285.0 757.3,286.0 759.1,286.0 760.8,287.0 762.5,287.0 764.2,287.0 765.9,288.0 767.6,288.0 769.3,288.0 771.1,288.0 772.8,289.0 774.5,289.0 776.2,289.0 777.9,289.0 779.6,289.0 781.3,289.0 783.1,289.0 784.8,289.0 786.5,289.0 788.2,289.0 789.9,288.0 791.6,288.0 793.3,288.0 795.0,288.0 796.8,288.0 798.5,287.0 800.2,287.0 801.9,286.0 803.6,286.0 805.3,286.0 807.0,285.0 808.8,285.0 810.5,284.0 812.2,284.0 813.9,283.0 815.6,282.0 817.3,282.0 819.0,281.0 820.7,280.0 822.5,280.0 824.2,279.0 825.9,278.0 827.6,277.0 829.3,277.0 831.0,276.0 832.7,275.0 834.5,274.0 836.2,273.0 837.9,272.0 839.6,271.0 841.3,271.0 843.0,270.0 844.7,269.0 846.4,268.0 848.2,267.0 849.9,266.0 851.6,265.0 853.3,264.0 855.0,263.0 856.7,262.0 858.4,261.0 860.2,260.0 861.9,259.0 863.6,258.0 865.3,257.0 867.0,256.0 868.7,255.0 870.4,254.0 872.1,253.0 873.9,252.0 875.6,251.0 877.3,250.0 879.0,249.0" fill="none" stroke="#2E7D32" stroke-width="1.2"/>
<text x="64" y="199" fill="#2E7D32" font-weight="bold">N (南北)</text>
<text x="876" y="199" text-anchor="end" fill="#555">RMS=476573902.57 cm</text>
<rect x="60" y="185" width="820" height="149" fill="none" stroke="#ccc" stroke-width="1"/>
<rect x="60" y="342" width="820" height="149" fill="#f8f9fa"/>
<line x1="60" y1="342" x2="60" y2="491" stroke="#e0e0e0" stroke-width="0.5"/>
<line x1="78" y1="342" x2="78" y2="491" stroke="#e0e0e0" stroke-width="0.5"/>
<line x1="97" y1="342" x2="97" y2="491" stroke="#e0e0e0" stroke-width="0.5"/>
<line x1="116" y1="342" x2="116" y2="491" stroke="#e0e0e0" stroke-width="0.5"/>
<line x1="135" y1="342" x2="135" y2="491" stroke="#e0e0e0" stroke-width="0.5"/>
<line x1="154" y1="342" x2="154" y2="491" stroke="#e0e0e0" stroke-width="0.5"/>
<line x1="173" y1="342" x2="173" y2="491" stroke="#e0e0e0" stroke-width="0.5"/>
<line x1="191" y1="342" x2="191" y2="491" stroke="#e0e0e0" stroke-width="0.5"/>
<line x1="210" y1="342" x2="210" y2="491" stroke="#e0e0e0" stroke-width="0.5"/>
<line x1="229" y1="342" x2="229" y2="491" stroke="#e0e0e0" stroke-width="0.5"/>
<line x1="248" y1="342" x2="248" y2="491" stroke="#e0e0e0" stroke-width="0.5"/>
<line x1="267" y1="342" x2="267" y2="491" stroke="#e0e0e0" stroke-width="0.5"/>
<line x1="286" y1="342" x2="286" y2="491" stroke="#e0e0e0" stroke-width="0.5"/>
<line x1="305" y1="342" x2="305" y2="491" stroke="#e0e0e0" stroke-width="0.5"/>
<line x1="323" y1="342" x2="323" y2="491" stroke="#e0e0e0" stroke-width="0.5"/>
<line x1="342" y1="342" x2="342" y2="491" stroke="#e0e0e0" stroke-width="0.5"/>
<line x1="361" y1="342" x2="361" y2="491" stroke="#e0e0e0" stroke-width="0.5"/>
<line x1="380" y1="342" x2="380" y2="491" stroke="#e0e0e0" stroke-width="0.5"/>
<line x1="399" y1="342" x2="399" y2="491" stroke="#e0e0e0" stroke-width="0.5"/>
<line x1="418" y1="342" x2="418" y2="491" stroke="#e0e0e0" stroke-width="0.5"/>
<line x1="436" y1="342" x2="436" y2="491" stroke="#e0e0e0" stroke-width="0.5"/>
<line x1="455" y1="342" x2="455" y2="491" stroke="#e0e0e0" stroke-width="0.5"/>
<line x1="474" y1="342" x2="474" y2="491" stroke="#e0e0e0" stroke-width="0.5"/>
<line x1="493" y1="342" x2="493" y2="491" stroke="#e0e0e0" stroke-width="0.5"/>
<line x1="512" y1="342" x2="512" y2="491" stroke="#e0e0e0" stroke-width="0.5"/>
<line x1="531" y1="342" x2="531" y2="491" stroke="#e0e0e0" stroke-width="0.5"/>
<line x1="550" y1="342" x2="550" y2="491" stroke="#e0e0e0" stroke-width="0.5"/>
<line x1="568" y1="342" x2="568" y2="491" stroke="#e0e0e0" stroke-width="0.5"/>
<line x1="587" y1="342" x2="587" y2="491" stroke="#e0e0e0" stroke-width="0.5"/>
<line x1="606" y1="342" x2="606" y2="491" stroke="#e0e0e0" stroke-width="0.5"/>
<line x1="625" y1="342" x2="625" y2="491" stroke="#e0e0e0" stroke-width="0.5"/>
<line x1="644" y1="342" x2="644" y2="491" stroke="#e0e0e0" stroke-width="0.5"/>
<line x1="663" y1="342" x2="663" y2="491" stroke="#e0e0e0" stroke-width="0.5"/>
<line x1="681" y1="342" x2="681" y2="491" stroke="#e0e0e0" stroke-width="0.5"/>
<line x1="700" y1="342" x2="700" y2="491" stroke="#e0e0e0" stroke-width="0.5"/>
<line x1="719" y1="342" x2="719" y2="491" stroke="#e0e0e0" stroke-width="0.5"/>
<line x1="738" y1="342" x2="738" y2="491" stroke="#e0e0e0" stroke-width="0.5"/>
<line x1="757" y1="342" x2="757" y2="491" stroke="#e0e0e0" stroke-width="0.5"/>
<line x1="776" y1="342" x2="776" y2="491" stroke="#e0e0e0" stroke-width="0.5"/>
<line x1="795" y1="342" x2="795" y2="491" stroke="#e0e0e0" stroke-width="0.5"/>
<line x1="813" y1="342" x2="813" y2="491" stroke="#e0e0e0" stroke-width="0.5"/>
<line x1="832" y1="342" x2="832" y2="491" stroke="#e0e0e0" stroke-width="0.5"/>
<line x1="851" y1="342" x2="851" y2="491" stroke="#e0e0e0" stroke-width="0.5"/>
<line x1="870" y1="342" x2="870" y2="491" stroke="#e0e0e0" stroke-width="0.5"/>
<line x1="60" y1="416" x2="880" y2="416" stroke="#999" stroke-width="0.8"/>
<polyline points="60.0,417.0 61.7,417.0 63.4,417.0 65.1,417.0 66.9,417.0 68.6,417.0 70.3,417.0 72.0,418.0 73.7,418.0 75.4,418.0 77.1,418.0 78.8,419.0 80.6,419.0 82.3,420.0 84.0,420.0 85.7,421.0 87.4,421.0 89.1,422.0 90.8,422.0 92.6,423.0 94.3,424.0 96.0,424.0 97.7,425.0 99.4,426.0 101.1,426.0 102.8,427.0 104.5,428.0 106.3,429.0 108.0,429.0 109.7,430.0 111.4,431.0 113.1,432.0 114.8,433.0 116.5,434.0 118.3,435.0 120.0,436.0 121.7,436.0 123.4,437.0 125.1,438.0 126.8,439.0 128.5,440.0 130.2,441.0 132.0,442.0 133.7,443.0 135.4,444.0 137.1,445.0 138.8,446.0 140.5,447.0 142.2,448.0 144.0,449.0 145.7,450.0 147.4,451.0 149.1,452.0 150.8,453.0 152.5,454.0 154.2,455.0 155.9,456.0 157.7,457.0 159.4,458.0 161.1,459.0 162.8,459.0 164.5,460.0 166.2,461.0 167.9,462.0 169.7,463.0 171.4,464.0 173.1,464.0 174.8,465.0 176.5,466.0 178.2,467.0 179.9,467.0 181.7,468.0 183.4,469.0 185.1,469.0 186.8,470.0 188.5,470.0 190.2,471.0 191.9,472.0 193.6,472.0 195.4,473.0 197.1,473.0 198.8,473.0 200.5,474.0 202.2,474.0 203.9,474.0 205.6,475.0 207.4,475.0 209.1,475.0 210.8,475.0 212.5,475.0 214.2,476.0 215.9,476.0 217.6,476.0 219.3,476.0 221.1,476.0 222.8,476.0 224.5,476.0 226.2,475.0 227.9,475.0 229.6,475.0 231.3,475.0 233.1,475.0 234.8,474.0 236.5,474.0 238.2,474.0 239.9,473.0 241.6,473.0 243.3,473.0 245.0,472.0 246.8,472.0 248.5,471.0 250.2,471.0 251.9,470.0 253.6,470.0 255.3,469.0 257.0,468.0 258.8,468.0 260.5,467.0 262.2,466.0 263.9,466.0 265.6,465.0 267.3,464.0 269.0,463.0 270.7,463.0 272.5,462.0 274.2,461.0 275.9,460.0 277.6,459.0 279.3,458.0 281.0,457.0 282.7,457.0 284.5,456.0 286.2,455.0 287.9,454.0 289.6,453.0 291.3,452.0 293.0,451.0 294.7,450.0 296.4,449.0 298.2,448.0 299.9,447.0 301.6,446.0 303.3,445.0 305.0,444.0 306.7,443.0 308.4,443.0 310.2,442.0 311.9,441.0 313.6,440.0 315.3,439.0 317.0,438.0 318.7,437.0 320.4,436.0 322.1,435.0 323.9,435.0 325.6,434.0 327.3,433.0 329.0,432.0 330.7,431.0 332.4,431.0 334.1,430.0 335.9,429.0 337.6,428.0 339.3,428.0 341.0,427.0 342.7,426.0 344.4,426.0 346.1,425.0 347.8,425.0 349.6,424.0 351.3,423.0 353.0,423.0 354.7,423.0 356.4,422.0 358.1,422.0 359.8,421.0 361.6,421.0 363.3,421.0 365.0,420.0 366.7,420.0 368.4,420.0 370.1,420.0 371.8,419.0 373.6,419.0 375.3,419.0 377.0,419.0 378.7,419.0 380.4,419.0 382.1,419.0 383.8,419.0 385.5,419.0 387.3,419.0 389.0,419.0 390.7,419.0 392.4,420.0 394.1,420.0 395.8,420.0 397.5,420.0 399.3,421.0 401.0,421.0 402.7,421.0 404.4,422.0 406.1,422.0 407.8,422.0 409.5,423.0 411.2,423.0 413.0,424.0 414.7,424.0 416.4,425.0 418.1,426.0 419.8,426.0 421.5,427.0 423.2,427.0 425.0,428.0 426.7,429.0 428.4,429.0 430.1,430.0 431.8,431.0 433.5,432.0 435.2,432.0 436.9,433.0 438.7,434.0 440.4,435.0 442.1,435.0 443.8,436.0 445.5,437.0 447.2,438.0 448.9,439.0 450.7,440.0 452.4,440.0 454.1,441.0 455.8,442.0 457.5,443.0 459.2,444.0 460.9,445.0 462.6,446.0 464.4,447.0 466.1,447.0 467.8,448.0 469.5,449.0 471.2,450.0 472.9,451.0 474.6,452.0 476.4,452.0 478.1,453.0 479.8,454.0 481.5,455.0 483.2,456.0 484.9,456.0 486.6,457.0 488.3,458.0 490.1,459.0 491.8,459.0 493.5,460.0 495.2,461.0 496.9,461.0 498.6,462.0 500.3,463.0 502.1,463.0 503.8,464.0 505.5,465.0 507.2,465.0 508.9,466.0 510.6,466.0 512.3,467.0 514.0,467.0 515.8,467.0 517.5,468.0 519.2,468.0 520.9,469.0 522.6,469.0 524.3,469.0 526.0,470.0 527.8,470.0 529.5,470.0 531.2,470.0 532.9,470.0 534.6,471.0 536.3,471.0 538.0,471.0 539.7,471.0 541.5,471.0 543.2,471.0 544.9,471.0 546.6,471.0 548.3,471.0 550.0,471.0 551.7,471.0 553.5,471.0 555.2,470.0 556.9,470.0 558.6,470.0 560.3,470.0 562.0,469.0 563.7,469.0 565.4,469.0 567.2,469.0 568.9,468.0 570.6,468.0 572.3,467.0 574.0,467.0 575.7,466.0 577.4,466.0 579.2,466.0 580.9,465.0 582.6,464.0 584.3,464.0 586.0,463.0 587.7,463.0 589.4,462.0 591.2,462.0 592.9,461.0 594.6,460.0 596.3,460.0 598.0,459.0 599.7,458.0 601.4,458.0 603.1,457.0 604.9,456.0 606.6,456.0 608.3,455.0 610.0,454.0 611.7,453.0 613.4,453.0 615.1,452.0 616.9,451.0 618.6,450.0 620.3,450.0 622.0,449.0 623.7,448.0 625.4,447.0 627.1,447.0 628.8,446.0 630.6,445.0 632.3,444.0 634.0,444.0 635.7,443.0 637.4,442.0 639.1,442.0 640.8,441.0 642.6,440.0 644.3,439.0 646.0,439.0 647.7,438.0 649.4,437.0 651.1,437.0 652.8,436.0 654.5,436.0 656.3,435.0 658.0,434.0 659.7,434.0 661.4,433.0 663.1,433.0 664.8,432.0 666.5,432.0 668.3,431.0 670.0,431.0 671.7,430.0 673.4,430.0 675.1,429.0 676.8,429.0 678.5,429.0 680.2,428.0 682.0,428.0 683.7,428.0 685.4,427.0 687.1,427.0 688.8,427.0 690.5,427.0 692.2,426.0 694.0,426.0 695.7,426.0 697.4,426.0 699.1,426.0 700.8,426.0 702.5,426.0 704.2,426.0 705.9,426.0 707.7,426.0 709.4,426.0 711.1,426.0 712.8,426.0 714.5,426.0 716.2,426.0 717.9,426.0 719.7,426.0 721.4,427.0 723.1,427.0 724.8,427.0 726.5,427.0 728.2,427.0 729.9,428.0 731.6,428.0 733.4,428.0 735.1,429.0 736.8,429.0 738.5,429.0 740.2,430.0 741.9,430.0 743.6,431.0 745.4,431.0 747.1,431.0 748.8,432.0 750.5,432.0 752.2,433.0 753.9,433.0 755.6,434.0 757.3,434.0 759.1,435.0 760.8,435.0 762.5,436.0 764.2,436.0 765.9,437.0 767.6,438.0 769.3,438.0 771.1,439.0 772.8,439.0 774.5,440.0 776.2,441.0 777.9,441.0 779.6,442.0 781.3,442.0 783.1,443.0 784.8,444.0 786.5,444.0 788.2,445.0 789.9,445.0 791.6,446.0 793.3,447.0 795.0,447.0 796.8,448.0 798.5,448.0 800.2,449.0 801.9,449.0 803.6,450.0 805.3,451.0 807.0,451.0 808.8,452.0 810.5,452.0 812.2,453.0 813.9,453.0 815.6,454.0 817.3,454.0 819.0,455.0 820.7,455.0 822.5,456.0 824.2,456.0 825.9,457.0 827.6,457.0 829.3,457.0 831.0,458.0 832.7,458.0 834.5,458.0 836.2,459.0 837.9,459.0 839.6,459.0 841.3,460.0 843.0,460.0 844.7,460.0 846.4,461.0 848.2,461.0 849.9,461.0 851.6,461.0 853.3,461.0 855.0,462.0 856.7,462.0 858.4,462.0 860.2,462.0 861.9,462.0 863.6,462.0 865.3,462.0 867.0,462.0 868.7,462.0 870.4,462.0 872.1,462.0 873.9,462.0 875.6,462.0 877.3,462.0 879.0,462.0" fill="none" stroke="#C62828" stroke-width="1.2"/>
<text x="64" y="356" fill="#C62828" font-weight="bold">U (垂直)</text>
<text x="876" y="356" text-anchor="end" fill="#555">RMS=799567277.53 cm</text>
<rect x="60" y="342" width="820" height="149" fill="none" stroke="#ccc" stroke-width="1"/>
<text x="450" y="512" text-anchor="middle" font-size="12" fill="#333">2024-04-30 4h | 3D RMS=970118774.89 cm (479 epochs)</text>
</svg>