<svg xmlns="http://www.w3.org/2000/svg" width="900" height="520" font-family="DejaVu Sans,sans-serif" font-size="11"><rect width="900" height="520" fill="white"/>
<rect x="60" y="28" width="820" height="149" fill="#f8f9fa"/>
<line x1="60" y1="28" x2="60" y2="177" stroke="#e0e0e0" stroke-width="0.5"/>
<line x1="78" y1="28" x2="78" y2="177" stroke="#e0e0e0" stroke-width="0.5"/>
<line x1="97" y1="28" x2="97" y2="177" stroke="#e0e0e0" stroke-width="0.5"/>
<line x1="116" y1="28" x2="116" y2="177" stroke="#e0e0e0" stroke-width="0.5"/>
<line x1="135" y1="28" x2="135" y2="177" stroke="#e0e0e0" stroke-width="0.5"/>
<line x1="154" y1="28" x2="154" y2="177" stroke="#e0e0e0" stroke-width="0.5"/>
<line x1="173" y1="28" x2="173" y2="177" stroke="#e0e0e0" stroke-width="0.5"/>
<line x1="191" y1="28" x2="191" y2="177" stroke="#e0e0e0" stroke-width="0.5"/>
<line x1="210" y1="28" x2="210" y2="177" stroke="#e0e0e0" stroke-width="0.5"/>
<line x1="229" y1="28" x2="229" y2="177" stroke="#e0e0e0" stroke-width="0.5"/>
<line x1="248" y1="28" x2="248" y2="177" stroke="#e0e0e0" stroke-width="0.5"/>
<line x1="267" y1="28" x2="267" y2="177" stroke="#e0e0e0" stroke-width="0.5"/>
<line x1="286" y1="28" x2="286" y2="177" stroke="#e0e0e0" stroke-width="0.5"/>
<line x1="305" y1="28" x2="305" y2="177" stroke="#e0e0e0" stroke-width="0.5"/>
<line x1="323" y1="28" x2="323" y2="177" stroke="#e0e0e0" stroke-width="0.5"/>
<line x1="342" y1="28" x2="342" y2="177" stroke="#e0e0e0" stroke-width="0.5"/>
<line x1="361" y1="28" x2="361" y2="177" stroke="#e0e0e0" stroke-width="0.5"/>
<line x1="380" y1="28" x2="380" y2="177" stroke="#e0e0e0" stroke-width="0.5"/>
<line x1="399" y1="28" x2="399" y2="177" stroke="#e0e0e0" stroke-width="0.5"/>
<line x1="418" y1="28" x2="418" y2="177" stroke="#e0e0e0" stroke-width="0.5"/>
<line x1="436" y1="28" x2="436" y2="177" stroke="#e0e0e0" stroke-width="0.5"/>
<line x1="455" y1="28" x2="455" y2="177" stroke="#e0e0e0" stroke-width="0.5"/>
<line x1="474" y1="28" x2="474" y2="177" stroke="#e0e0e0" stroke-width="0.5"/>
<line x1="493" y1="28" x2="493" y2="177" stroke="#e0e0e0" stroke-width="0.5"/>
<line x1="512" y1="28" x2="512" y2="177" stroke="#e0e0e0" stroke-width="0.5"/>
<line x1="531" y1="28" x2="531" y2="177" stroke="#e0e0e0" stroke-width="0.5"/>
<line x1="550" y1="28" x2="550" y2="177" stroke="#e0e0e0" stroke-width="0.5"/>
<line x1="568" y1="28" x2="568" y2="177" stroke="#e0e0e0" stroke-width="0.5"/>
<line x1="587" y1="28" x2="587" y2="177" stroke="#e0e0e0" stroke-width="0.5"/>
<line x1="606" y1="28" x2="606" y2="177" stroke="#e0e0e0" stroke-width="0.5"/>
<line x1="625" y1="28" x2="625" y2="177" stroke="#e0e0e0" stroke-width="0.5"/>
<line x1="644" y1="28" x2="644" y2="177" stroke="#e0e0e0" stroke-width="0.5"/>
<line x1="663" y1="28" x2="663" y2="177" stroke="#e0e0e0" stroke-width="0.5"/>
<line x1="681" y1="28" x2="681" y2="177" stroke="#e0e0e0" stroke-width="0.5"/>
<line x1="700" y1="28" x2="700" y2="177" stroke="#e0e0e0" stroke-width="0.5"/>
<line x1="719" y1="28" x2="719" y2="177" stroke="#e0e0e0" stroke-width="0.5"/>
<line x1="738" y1="28" x2="738" y2="177" stroke="#e0e0e0" stroke-width="0.5"/>
<line x1="757" y1="28" x2="757" y2="177" stroke="#e0e0e0" stroke-width="0.5"/>
<line x1="776" y1="28" x2="776" y2="177" stroke="#e0e0e0" stroke-width="0.5"/>
<line x1="795" y1="28" x2="795" y2="177" stroke="#e0e0e0" stroke-width="0.5"/>
<line x1="813" y1="28" x2="813" y2="177" stroke="#e0e0e0" stroke-width="0.5"/>
<line x1="832" y1="28" x2="832" y2="177" stroke="#e0e0e0" stroke-width="0.5"/>
<line x1="851" y1="28" x2="851" y2="177" stroke="#e0e0e0" stroke-width="0.5"/>
<line x1="870" y1="28" x2="870" y2="177" stroke="#e0e0e0" stroke-width="0.5"/>
<line x1="60" y1="102" x2="880" y2="102" stroke="#999" stroke-width="0.8"/>
<polyline points="60.0,103.0 61.7,103.0 63.4,103.0 65.1,103.0 66.9,103.0 68.6,103.0 70.3,103.0 72.0,103.0 73.7,103.0 75.4,103.0 77.1,103.0 78.8,103.0 80.6,103.0 82.3,103.0 84.0,103.0 85.7,103.0 87.4,103.0 89.1,103.0 90.8,103.0 92.6,103.0 94.3,103.0 96.0,102.0 97.7,102.0 99.4,102.0 101.1,102.0 102.8,102.0 104.5,102.0 106.3,102.0 108.0,102.0 109.7,102.0 111.4,102.0 113.1,102.0 114.8,102.0 116.5,102.0 118.3,102.0 120.0,101.0 121.7,101.0 123.4,101.0 125.1,101.0 126.8,101.0 128.5,101.0 130.2,101.0 132.0,101.0 133.7,101.0 135.4,101.0 137.1,100.0 138.8,100.0 140.5,100.0 142.2,100.0 144.0,100.0 145.7,100.0 147.4,100.0 149.1,100.0 150.8,99.0 152.5,99.0 154.2,99.0 155.9,99.0 157.7,99.0 159.4,99.0 161.1,99.0 162.8,99.0 164.5,98.0 166.2,98.0 167.9,98.0 169.7,98.0 171.4,98.0 173.1,98.0 174.8,98.0 176.5,98.0 178.2,98.0 179.9,98.0 181.7,97.0 183.4,97.0 185.1,97.0 186.8,97.0 188.5,97.0 190.2,97.0 191.9,97.0 193.6,97.0 195.4,97.0 197.1,97.0 198.8,97.0 200.5,97.0 202.2,97.0 203.9,97.0 205.6,97.0 207.4,97.0 209.1,97.0 210.8,97.0 212.5,97.0 214.2,97.0 215.9,97.0 217.6,97.0 219.3,97.0 221.1,97.0 222.8,97.0 224.5,98.0 226.2,98.0 227.9,98.0 229.6,98.0 231.3,98.0 233.1,98.0 234.8,98.0 236.5,98.0 238.2,99.0 239.9,99.0 241.6,99.0 243.3,99.0 245.0,99.0 246.8,99.0 248.5,100.0 250.2,100.0 251.9,100.0 253.6,100.0 255.3,101.0 257.0,101.0 258.8,101.0 260.5,101.0 262.2,102.0 263.9,102.0 265.6,102.0 267.3,102.0 269.0,103.0 270.7,103.0 272.5,103.0 274.2,103.0 275.9,104.0 277.6,104.0 279.3,104.0 281.0,105.0 282.7,105.0 284.5,105.0 286.2,105.0 287.9,106.0 289.6,106.0 291.3,106.0 293.0,107.0 294.7,107.0 296.4,107.0 298.2,108.0 299.9,108.0 301.6,108.0 303.3,108.0 305.0,109.0 306.7,109.0 308.4,109.0 310.2,109.0 311.9,110.0 313.6,110.0 315.3,110.0 317.0,111.0 318.7,111.0 320.4,111.0 322.1,111.0 323.9,111.0 325.6,112.0 327.3,112.0 329.0,112.0 330.7,112.0 332.4,112.0 334.1,113.0 335.9,113.0 337.6,113.0 339.3,113.0 341.0,113.0 342.7,113.0 344.4,113.0 346.1,114.0 347.8,114.0 349.6,114.0 351.3,114.0 353.0,114.0 354.7,114.0 356.4,114.0 358.1,114.0 359.8,114.0 361.6,114.0 363.3,114.0 365.0,114.0 366.7,114.0 368.4,114.0 370.1,114.0 371.8,113.0 373.6,113.0 375.3,113.0 377.0,113.0 378.7,113.0 380.4,113.0 382.1,113.0 383.8,112.0 385.5,112.0 387.3,112.0 389.0,112.0 390.7,111.0 392.4,111.0 394.1,111.0 395.8,111.0 397.5,110.0 399.3,110.0 401.0,110.0 402.7,109.0 404.4,109.0 406.1,109.0 407.8,108.0 409.5,108.0 411.2,108.0 413.0,107.0 414.7,107.0 416.4,106.0 418.1,106.0 419.8,106.0 421.5,105.0 423.2,105.0 425.0,104.0 426.7,104.0 428.4,103.0 430.1,103.0 431.8,102.0 433.5,102.0 435.2,102.0 436.9,101.0 438.7,101.0 440.4,100.0 442.1,100.0 443.8,99.0 445.5,99.0 447.2,98.0 448.9,98.0 450.7,97.0 452.4,97.0 454.1,96.0 455.8,96.0 457.5,95.0 459.2,95.0 460.9,94.0 462.6,94.0 464.4,94.0 466.1,93.0 467.8,93.0 469.5,92.0 471.2,92.0 472.9,91.0 474.6,91.0 476.4,91.0 478.1,90.0 479.8,90.0 481.5,90.0 483.2,89.0 484.9,89.0 486.6,89.0 488.3,88.0 490.1,88.0 491.8,88.0 493.5,88.0 495.2,87.0 496.9,87.0 498.6,87.0 500.3,87.0 502.1,87.0 503.8,86.0 505.5,86.0 507.2,86.0 508.9,86.0 510.6,86.0 512.3,86.0 514.0,86.0 515.8,86.0 517.5,86.0 519.2,86.0 520.9,86.0 522.6,86.0 524.3,86.0 526.0,86.0 527.8,86.0 529.5,86.0 531.2,86.0 532.9,87.0 534.6,87.0 536.3,87.0 538.0,87.0 539.7,87.0 541.5,88.0 543.2,88.0 544.9,88.0 546.6,88.0 548.3,89.0 550.0,89.0 551.7,90.0 553.5,90.0 555.2,90.0 556.9,91.0 558.6,91.0 560.3,92.0 562.0,92.0 563.7,93.0 565.4,93.0 567.2,93.0 568.9,94.0 570.6,95.0 572.3,95.0 574.0,96.0 575.7,96.0 577.4,97.0 579.2,97.0 580.9,98.0 582.6,98.0 584.3,99.0 586.0,100.0 587.7,100.0 589.4,101.0 591.2,102.0 592.9,102.0 594.6,103.0 596.3,103.0 598.0,104.0 599.7,105.0 601.4,105.0 603.1,106.0 604.9,107.0 606.6,107.0 608.3,108.0 610.0,109.0 611.7,109.0 613.4,110.0 615.1,110.0 616.9,111.0 618.6,112.0 620.3,112.0 622.0,113.0 623.7,113.0 625.4,114.0 627.1,115.0 628.8,115.0 630.6,116.0 632.3,116.0 634.0,117.0 635.7,117.0 637.4,118.0 639.1,118.0 640.8,119.0 642.6,119.0 644.3,120.0 646.0,120.0 647.7,120.0 649.4,121.0 651.1,121.0 652.8,121.0 654.5,122.0 656.3,122.0 658.0,122.0 659.7,123.0 661.4,123.0 663.1,123.0 664.8,123.0 666.5,123.0 668.3,124.0 670.0,124.0 671.7,124.0 673.4,124.0 675.1,124.0 676.8,124.0 678.5,124.0 680.2,124.0 682.0,124.0 683.7,124.0 685.4,124.0 687.1,124.0 688.8,123.0 690.5,123.0 692.2,123.0 694.0,123.0 695.7,123.0 697.4,122.0 699.1,122.0 700.8,122.0 702.5,121.0 704.2,121.0 705.9,121.0 707.7,120.0 709.4,120.0 711.1,119.0 712.8,119.0 714.5,119.0 716.2,118.0 717.9,118.0 719.7,117.0 721.4,116.0 723.1,116.0 724.8,115.0 726.5,115.0 728.2,114.0 729.9,113.0 731.6,113.0 733.4,112.0 735.1,111.0 736.8,111.0 738.5,110.0 740.2,109.0 741.9,109.0 743.6,108.0 745.4,107.0 747.1,106.0 748.8,106.0 750.5,105.0 752.2,104.0 753.9,103.0 755.6,103.0 757.3,102.0 759.1,101.0 760.8,100.0 762.5,99.0 764.2,99.0 765.9,98.0 767.6,97.0 769.3,96.0 771.1,96.0 772.8,95.0 774.5,94.0 776.2,93.0 777.9,92.0 779.6,92.0 781.3,91.0 783.1,90.0 784.8,90.0 786.5,89.0 788.2,88.0 789.9,88.0 791.6,87.0 793.3,86.0 795.0,86.0 796.8,85.0 798.5,84.0 800.2,84.0 801.9,83.0 803.6,83.0 805.3,82.0 807.0,82.0 808.8,81.0 810.5,81.0 812.2,81.0 813.9,80.0 815.6,80.0 817.3,79.0 819.0,79.0 820.7,79.0 822.5,79.0 824.2,78.0 825.9,78.0 827.6,78.0 829.3,78.0 831.0,78.0 832.7,77.0 834.5,77.0 836.2,77.0 837.9,77.0 839.6,77.0 841.3,77.0 843.0,77.0 844.7,77.0 846.4,78.0 848.2,78.0 849.9,78.0 851.6,78.0 853.3,78.0 855.0,79.0 856.7,79.0 858.4,79.0 860.2,80.0 861.9,80.0 863.6,80.0 865.3,81.0 867.0,81.0 868.7,82.0 870.4,82.0 872.1,83.0 873.9,83.0 875.6,84.0 877.3,84.0 879.0,85.0" fill="none" stroke="#1565C0" stroke-width="1.2"/>
<text x="64" y="42" fill="#1565C0" font-weight="bold">E (东西)</text>
<text x="876" y="42" text-anchor="end" fill="#555">RMS=277126716.18 cm</text>
<rect x="60" y="28" width="820" height="149" fill="none" stroke="#ccc" stroke-width="1"/>
<rect x="60" y="185" width="820" height="149" fill="#f8f9fa"/>
<line x1="60" y1="185" x2="60" y2="334" stroke="#e0e0e0" stroke-width="0.5"/>
<line x1="78" y1="185" x2="78" y2="334" stroke="#e0e0e0" stroke-width="0.5"/>
<line x1="97" y1="185" x2="97" y2="334" stroke="#e0e0e0" stroke-width="0.5"/>
<line x1="116" y1="185" x2="116" y2="334" stroke="#e0e0e0" stroke-width="0.5"/>
<line x1="135" y1="185" x2="135" y2="334" stroke="#e0e0e0" stroke-width="0.5"/>
<line x1="154" y1="185" x2="154" y2="334" stroke="#e0e0e0" stroke-width="0.5"/>
<line x1="173" y1="185" x2="173" y2="334" stroke="#e0e0e0" stroke-width="0.5"/>
<line x1="191" y1="185" x2="191" y2="334" stroke="#e0e0e0" stroke-width="0.5"/>
<line x1="210" y1="185" x2="210" y2="334" stroke="#e0e0e0" stroke-width="0.5"/>
<line x1="229" y1="185" x2="229" y2="334" stroke="#e0e0e0" stroke-width="0.5"/>
<line x1="248" y1="185" x2="248" y2="334" stroke="#e0e0e0" stroke-width="0.5"/>
<line x1="267" y1="185" x2="267" y2="334" stroke="#e0e0e0" stroke-width="0.5"/>
<line x1="286" y1="185" x2="286" y2="334" stroke="#e0e0e0" stroke-width="0.5"/>
<line x1="305" y1="185" x2="305" y2="334" stroke="#e0e0e0" stroke-width="0.5"/>
<line x1="323" y1="185" x2="323" y2="334" stroke="#e0e0e0" stroke-width="0.5"/>
<line x1="342" y1="185" x2="342" y2="334" stroke="#e0e0e0" stroke-width="0.5"/>
<line x1="361" y1="185" x2="361" y2="334" stroke="#e0e0e0" stroke-width="0.5"/>
<line x1="380" y1="185" x2="380" y2="334" stroke="#e0e0e0" stroke-width="0.5"/>
<line x1="399" y1="185" x2="399" y2="334" stroke="#e0e0e0" stroke-width="0.5"/>
<line x1="418" y1="185" x2="418" y2="334" stroke="#e0e0e0" stroke-width="0.5"/>
<line x1="436" y1="185" x2="436" y2="334" stroke="#e0e0e0" stroke-width="0.5"/>
<line x1="455" y1="185" x2="455" y2="334" stroke="#e0e0e0" stroke-width="0.5"/>
<line x1="474" y1="185" x2="474" y2="334" stroke="#e0e0e0" stroke-width="0.5"/>
<line x1="493" y1="185" x2="493" y2="334" stroke="#e0e0e0" stroke-width="0.5"/>
<line x1="512" y1="185" x2="512" y2="334" stroke="#e0e0e0" stroke-width="0.5"/>
<line x1="531" y1="185" x2="531" y2="334" stroke="#e0e0e0" stroke-width="0.5"/>
<line x1="550" y1="185" x2="550" y2="334" stroke="#e0e0e0" stroke-width="0.5"/>
<line x1="568" y1="185" x2="568" y2="334" stroke="#e0e0e0" stroke-width="0.5"/>
<line x1="587" y1="185" x2="587" y2="334" stroke="#e0e0e0" stroke-width="0.5"/>
<line x1="606" y1="185" x2="606" y2="334" stroke="#e0e0e0" stroke-width="0.5"/>
<line x1="625" y1="185" x2="625" y2="334" stroke="#e0e0e0" stroke-width="0.5"/>
<line x1="644" y1="185" x2="644" y2="334" stroke="#e0e0e0" stroke-width="0.5"/>
<line x1="663" y1="185" x2="663" y2="334" stroke="#e0e0e0" stroke-width="0.5"/>
<line x1="681" y1="185" x2="681" y2="334" stroke="#e0e0e0" stroke-width="0.5"/>
<line x1="700" y1="185" x2="700" y2="334" stroke="#e0e0e0" stroke-width="0.5"/>
<line x1="719" y1="185" x2="719" y2="334" stroke="#e0e0e0" stroke-width="0.5"/>
<line x1="738" y1="185" x2="738" y2="334" stroke="#e0e0e0" stroke-width="0.5"/>
<line x1="757" y1="185" x2="757" y2="334" stroke="#e0e0e0" stroke-width="0.5"/>
<line x1="776" y1="185" x2="776" y2="334" stroke="#e0e0e0" stroke-width="0.5"/>
<line x1="795" y1="185" x2="795" y2="334" stroke="#e0e0e0" stroke-width="0.5"/>
<line x1="813" y1="185" x2="813" y2="334" stroke="#e0e0e0" stroke-width="0.5"/>
<line x1="832" y1="185" x2="832" y2="334" stroke="#e0e0e0" stroke-width="0.5"/>
<line x1="851" y1="185" x2="851" y2="334" stroke="#e0e0e0" stroke-width="0.5"/>
<line x1="870" y1="185" x2="870" y2="334" stroke="#e0e0e0" stroke-width="0.5"/>
<line x1="60" y1="259" x2="880" y2="259" stroke="#999" stroke-width="0.8"/>
<polyline points="60.0,259.0 61.7,258.0 63.4,257.0 65.1,256.0 66.9,255.0 68.6,254.0 70.3,253.0 72.0,252.0 73.7,251.0 75.4,250.0 77.1,249.0 78.8,248.0 80.6,247.0 82.3,246.0 84.0,245.0 85.7,244.0 87.4,243.0 89.1,243.0 90.8,242.0 92.6,241.0 94.3,240.0 96.0,240.0 97.7,239.0 99.4,238.0 101.1,237.0 102.8,237.0 104.5,236.0 106.3,236.0 108.0,235.0 109.7,234.0 111.4,234.0 113.1,233.0 114.8,233.0 116.5,232.0 118.3,232.0 120.0,232.0 121.7,231.0 123.4,231.0 125.1,231.0 126.8,231.0 128.5,230.0 130.2,230.0 132.0,230.0 133.7,230.0 135.4,230.0 137.1,230.0 138.8,230.0 140.5,230.0 142.2,230.0 144.0,230.0 145.7,230.0 147.4,230.0 149.1,230.0 150.8,230.0 152.5,231.0 154.2,231.0 155.9,231.0 157.7,232.0 159.4,232.0 161.1,232.0 162.8,233.0 164.5,233.0 166.2,234.0 167.9,234.0 169.7,235.0 171.4,235.0 173.1,236.0 174.8,237.0 176.5,237.0 178.2,238.0 179.9,239.0 181.7,239.0 183.4,240.0 185.1,241.0 186.8,242.0 188.5,243.0 190.2,243.0 191.9,244.0 193.6,245.0 195.4,246.0 197.1,247.0 198.8,248.0 200.5,249.0 202.2,250.0 203.9,251.0 205.6,252.0 207.4,253.0 209.1,253.0 210.8,254.0 212.5,255.0 214.2,256.0 215.9,257.0 217.6,258.0 219.3,259.0 221.1,260.0 222.8,261.0 224.5,262.0 226.2,263.0 227.9,264.0 229.6,265.0 231.3,266.0 233.1,267.0 234.8,268.0 236.5,269.0 238.2,270.0 239.9,271.0 241.6,272.0 243.3,273.0 245.0,274.0 246.8,275.0 248.5,275.0 250.2,276.0 251.9,277.0 253.6,278.0 255.3,279.0 257.0,279.0 258.8,280.0 260.5,281.0 262.2,281.0 263.9,282.0 265.6,283.0 267.3,283.0 269.0,284.0 270.7,284.0 272.5,285.0 274.2,285.0 275.9,286.0 277.6,286.0 279.3,287.0 281.0,287.0 282.7,287.0 284.5,288.0 286.2,288.0 287.9,288.0 289.6,288.0 291.3,288.0 293.0,289.0 294.7,289.0 296.4,289.0 298.2,289.0 299.9,289.0 301.6,289.0 303.3,289.0 305.0,289.0 306.7,288.0 308.4,288.0 310.2,288.0 311.9,288.0 313.6,288.0 315.3,287.0 317.0,287.0 318.7,287.0 320.4,286.0 322.1,286.0 323.9,285.0 325.6,285.0 327.3,284.0 329.0,284.0 330.7,283.0 332.4,283.0 334.1,282.0 335.9,281.0 337.6,281.0 339.3,280.0 341.0,279.0 342.7,279.0 344.4,278.0 346.1,277.0 347.8,276.0 349.6,276.0 351.3,275.0 353.0,274.0 354.7,273.0 356.4,272.0 358.1,271.0 359.8,270.0 361.6,269.0 363.3,269.0 365.0,268.0 366.7,267.0 368.4,266.0 370.1,265.0 371.8,264.0 373.6,263.0 375.3,262.0 377.0,261.0 378.7,260.0 380.4,259.0 382.1,258.0 383.8,257.0 385.5,256.0 387.3,255.0 389.0,254.0 390.7,253.0 392.4,252.0 394.1,251.0 395.8,250.0 397.5,249.0 399.3,248.0 401.0,248.0 402.7,247.0 404.4,246.0 406.1,245.0 407.8,244.0 409.5,243.0 411.2,242.0 413.0,242.0 414.7,241.0 416.4,240.0 418.1,240.0 419.8,239.0 421.5,238.0 423.2,238.0 425.0,237.0 426.7,236.0 428.4,236.0 430.1,235.0 431.8,235.0 433.5,234.0 435.2,234.0 436.9,233.0 438.7,233.0 440.4,233.0 442.1,232.0 443.8,232.0 445.5,232.0 447.2,232.0 448.9,231.0 450.7,231.0 452.4,231.0 454.1,231.0 455.8,231.0 457.5,231.0 459.2,231.0 460.9,231.0 462.6,231.0 464.4,231.0 466.1,231.0 467.8,231.0 469.5,231.0 471.2,232.0 472.9,232.0 474.6,232.0 476.4,233.0 478.1,233.0 479.8,233.0 481.5,234.0 483.2,234.0 484.9,235.0 486.6,235.0 488.3,236.0 490.1,236.0 491.8,237.0 493.5,237.0 495.2,238.0 496.9,239.0 498.6,239.0 500.3,240.0 502.1,241.0 503.8,241.0 505.5,242.0 507.2,243.0 508.9,244.0 510.6,245.0 512.3,245.0 514.0,246.0 515.8,247.0 517.5,248.0 519.2,249.0 520.9,250.0 522.6,251.0 524.3,252.0 526.0,253.0 527.8,254.0 529.5,254.0 531.2,255.0 532.9,256.0 534.6,257.0 536.3,258.0 538.0,259.0 539.7,260.0 541.5,261.0 543.2,262.0 544.9,263.0 546.6,264.0 548.3,265.0 550.0,266.0 551.7,267.0 553.5,268.0 555.2,269.0 556.9,270.0 558.6,270.0 560.3,271.0 562.0,272.0 563.7,273.0 565.4,274.0 567.2,275.0 568.9,275.0 570.6,276.0 572.3,277.0 574.0,278.0 575.7,278.0 577.4,279.0 579.2,280.0 580.9,280.0 582.6,281.0 584.3,281.0 586.0,282.0 587.7,283.0 589.4,283.0 591.2,284.0 592.9,284.0 594.6,284.0 596.3,285.0 598.0,285.0 599.7,286.0 601.4,286.0 603.1,286.0 604.9,286.0 606.6,287.0 608.3,287.0 610.0,287.0 611.7,287.0 613.4,287.0 615.1,287.0 616.9,287.0 618.6,287.0 620.3,287.0 622.0,287.0 623.7,287.0 625.4,287.0 627.1,287.0 628.8,286.0 630.6,286.0 632.3,286.0 634.0,286.0 635.7,285.0 637.4,285.0 639.1,285.0 640.8,284.0 642.6,284.0 644.3,283.0 646.0,283.0 647.7,282.0 649.4,282.0 651.1,281.0 652.8,280.0 654.5,280.0 656.3,279.0 658.0,278.0 659.7,278.0 661.4,277.0 663.1,276.0 664.8,276.0 666.5,275.0 668.3,274.0 670.0,273.0 671.7,272.0 673.4,272.0 675.1,271.0 676.8,270.0 678.5,269.0 680.2,268.0 682.0,267.0 683.7,266.0 685.4,265.0 687.1,264.0 688.8,264.0 690.5,263.0 692.2,262.0 694.0,261.0 695.7,260.0 697.4,259.0 699.1,258.0 700.8,257.0 702.5,256.0 704.2,255.0 705.9,254.0 707.7,253.0 709.4,252.0 711.1,252.0 712.8,251.0 714.5,250.0 716.2,249.0 717.9,248.0 719.7,247.0 721.4,246.0 723.1,246.0 724.8,245.0 726.5,244.0 728.2,243.0 729.9,243.0 731.6,242.0 733.4,241.0 735.1,241.0 736.8,240.0 738.5,239.0 740.2,239.0 741.9,238.0 743.6,238.0 745.4,237.0 747.1,237.0 748.8,236.0 750.5,236.0 752.2,235.0 753.9,235.0 755.6,235.0 757.3,234.0 759.1,234.0 760.8,234.0 762.5,233.0 764.2,233.0 765.9,233.0 767.6,233.0 769.3,233.0 771.1,233.0 772.8,233.0 774.5,233.0 776.2,233.0 777.9,233.0 779.6,233.0 781.3,233.0 783.1,233.0 784.8,233.0 786.5,233.0 788.2,234.0 789.9,234.0 791.6,234.0 793.3,235.0 795.0,235.0 796.8,235.0 798.5,236.0 800.2,236.0 801.9,237.0 803.6,237.0 805.3,238.0 807.0,238.0 808.8,239.0 810.5,239.0 812.2,240.0 813.9,241.0 815.6,241.0 817.3,242.0 819.0,243.0 820.7,243.0 822.5,244.0 824.2,245.0 825.9,246.0 827.6,246.0 829.3,247.0 831.0,248.0 832.7,249.0 834.5,250.0 836.2,250.0 837.9,251.0 839.6,252.0 841.3,253.0 843.0,254.0 844.7,255.0 846.4,256.0 848.2,257.0 849.9,258.0 851.6,259.0 853.3,259.0 855.0,260.0 856.7,261.0 858.4,262.0 860.2,263.0 861.9,264.0 863.6,265.0 865.3,266.0 867.0,267.0 868.7,267.0 870.4,268.0 872.1,269.0 873.9,270.0 875.6,271.0 877.3,272.0 879.0,272.0" fill="none" stroke="#2E7D32" stroke-width="1.2"/>
<text x="64" y="199" fill="#2E7D32" font-weight="bold">N (南北)</text>
<text x="876" y="199" text-anchor="end" fill="#555">RMS=457082169.69 cm</text>
<rect x="60" y="185" width="820" height="149" fill="none" stroke="#ccc" stroke-width="1"/>
<rect x="60" y="342" width="820" height="149" fill="#f8f9fa"/>
<line x1="60" y1="342" x2="60" y2="491" stroke="#e0e0e0" stroke-width="0.5"/>
<line x1="78" y1="342" x2="78" y2="491" stroke="#e0e0e0" stroke-width="0.5"/>
<line x1="97" y1="342" x2="97" y2="491" stroke="#e0e0e0" stroke-width="0.5"/>
<line x1="116" y1="342" x2="116" y2="491" stroke="#e0e0e0" stroke-width="0.5"/>
<line x1="135" y1="342" x2="135" y2="491" stroke="#e0e0e0" stroke-width="0.5"/>
<line x1="154" y1="342" x2="154" y2="491" stroke="#e0e0e0" stroke-width="0.5"/>
<line x1="173" y1="342" x2="173" y2="491" stroke="#e0e0e0" stroke-width="0.5"/>
<line x1="191" y1="342" x2="191" y2="491" stroke="#e0e0e0" stroke-width="0.5"/>
<line x1="210" y1="342" x2="210" y2="491" stroke="#e0e0e0" stroke-width="0.5"/>
<line x1="229" y1="342" x2="229" y2="491" stroke="#e0e0e0" stroke-width="0.5"/>
<line x1="248" y1="342" x2="248" y2="491" stroke="#e0e0e0" stroke-width="0.5"/>
<line x1="267" y1="342" x2="267" y2="491" stroke="#e0e0e0" stroke-width="0.5"/>
<line x1="286" y1="342" x2="286" y2="491" stroke="#e0e0e0" stroke-width="0.5"/>
<line x1="305" y1="342" x2="305" y2="491" stroke="#e0e0e0" stroke-width="0.5"/>
<line x1="323" y1="342" x2="323" y2="491" stroke="#e0e0e0" stroke-width="0.5"/>
<line x1="342" y1="342" x2="342" y2="491" stroke="#e0e0e0" stroke-width="0.5"/>
<line x1="361" y1="342" x2="361" y2="491" stroke="#e0e0e0" stroke-width="0.5"/>
<line x1="380" y1="342" x2="380" y2="491" stroke="#e0e0e0" stroke-width="0.5"/>
<line x1="399" y1="342" x2="399" y2="491" stroke="#e0e0e0" stroke-width="0.5"/>
<line x1="418" y1="342" x2="418" y2="491" stroke="#e0e0e0" stroke-width="0.5"/>
<line x1="436" y1="342" x2="436" y2="491" stroke="#e0e0e0" stroke-width="0.5"/>
<line x1="455" y1="342" x2="455" y2="491" stroke="#e0e0e0" stroke-width="0.5"/>
<line x1="474" y1="342" x2="474" y2="491" stroke="#e0e0e0" stroke-width="0.5"/>
<line x1="493" y1="342" x2="493" y2="491" stroke="#e0e0e0" stroke-width="0.5"/>
<line x1="512" y1="342" x2="512" y2="491" stroke="#e0e0e0" stroke-width="0.5"/>
<line x1="531" y1="342" x2="531" y2="491" stroke="#e0e0e0" stroke-width="0.5"/>
<line x1="550" y1="342" x2="550" y2="491" stroke="#e0e0e0" stroke-width="0.5"/>
<line x1="568" y1="342" x2="568" y2="491" stroke="#e0e0e0" stroke-width="0.5"/>
<line x1="587" y1="342" x2="587" y2="491" stroke="#e0e0e0" stroke-width="0.5"/>
<line x1="606" y1="342" x2="606" y2="491" stroke="#e0e0e0" stroke-width="0.5"/>
<line x1="625" y1="342" x2="625" y2="491" stroke="#e0e0e0" stroke-width="0.5"/>
<line x1="644" y1="342" x2="644" y2="491" stroke="#e0e0e0" stroke-width="0.5"/>
<line x1="663" y1="342" x2="663" y2="491" stroke="#e0e0e0" stroke-width="0.5"/>
<line x1="681" y1="342" x2="681" y2="491" stroke="#e0e0e0" stroke-width="0.5"/>
<line x1="700" y1="342" x2="700" y2="491" stroke="#e0e0e0" stroke-width="0.5"/>
<line x1="719" y1="342" x2="719" y2="491" stroke="#e0e0e0" stroke-width="0.5"/>
<line x1="738" y1="342" x2="738" y2="491" stroke="#e0e0e0" stroke-width="0.5"/>
<line x1="757" y1="342" x2="757" y2="491" stroke="#e0e0e0" stroke-width="0.5"/>
<line x1="776" y1="342" x2="776" y2="491" stroke="#e0e0e0" stroke-width="0.5"/>
<line x1="795" y1="342" x2="795" y2="491" stroke="#e0e0e0" stroke-width="0.5"/>
<line x1="813" y1="342" x2="813" y2="491" stroke="#e0e0e0" stroke-width="0.5"/>
<line x1="832" y1="342" x2="832" y2="491" stroke="#e0e0e0" stroke-width="0.5"/>
<line x1="851" y1="342" x2="851" y2="491" stroke="#e0e0e0" stroke-width="0.5"/>
<line x1="870" y1="342" x2="870" y2="491" stroke="#e0e0e0" stroke-width="0.5"/>
<line x1="60" y1="416" x2="880" y2="416" stroke="#999" stroke-width="0.8"/>
<polyline points="60.0,417.0 61.7,417.0 63.4,417.0 65.1,417.0 66.9,417.0 68.6,417.0 70.3,417.0 72.0,418.0 73.7,418.0 75.4,418.0 77.1,418.0 78.8,419.0 80.6,419.0 82.3,420.0 84.0,420.0 85.7,421.0 87.4,421.0 89.1,422.0 90.8,422.0 92.6,423.0 94.3,423.0 96.0,424.0 97.7,425.0 99.4,425.0 101.1,426.0 102.8,427.0 104.5,428.0 106.3,428.0 108.0,429.0 109.7,430.0 111.4,431.0 113.1,432.0 114.8,433.0 116.5,434.0 118.3,434.0 120.0,435.0 121.7,436.0 123.4,437.0 125.1,438.0 126.8,439.0 128.5,440.0 130.2,441.0 132.0,442.0 133.7,443.0 135.4,444.0 137.1,445.0 138.8,446.0 140.5,447.0 142.2,448.0 144.0,449.0 145.7,450.0 147.4,451.0 149.1,452.0 150.8,453.0 152.5,454.0 154.2,455.0 155.9,456.0 157.7,457.0 159.4,458.0 161.1,458.0 162.8,459.0 164.5,460.0 166.2,461.0 167.9,462.0 169.7,463.0 171.4,464.0 173.1,464.0 174.8,465.0 176.5,466.0 178.2,467.0 179.9,467.0 181.7,468.0 183.4,469.0 185.1,469.0 186.8,470.0 188.5,470.0 190.2,471.0 191.9,471.0 193.6,472.0 195.4,472.0 197.1,473.0 198.8,473.0 200.5,474.0 202.2,474.0 203.9,474.0 205.6,475.0 207.4,475.0 209.1,475.0 210.8,475.0 212.5,475.0 214.2,476.0 215.9,476.0 217.6,476.0 219.3,476.0 221.1,476.0 222.8,476.0 224.5,476.0 226.2,475.0 227.9,475.0 229.6,475.0 231.3,475.0 233.1,475.0 234.8,475.0 236.5,474.0 238.2,474.0 239.9,474.0 241.6,473.0 243.3,473.0 245.0,472.0 246.8,472.0 248.5,471.0 250.2,471.0 251.9,470.0 253.6,470.0 255.3,469.0 257.0,469.0 258.8,468.0 260.5,467.0 262.2,467.0 263.9,466.0 265.6,465.0 267.3,464.0 269.0,464.0 270.7,463.0 272.5,462.0 274.2,461.0 275.9,460.0 277.6,459.0 279.3,459.0 281.0,458.0 282.7,457.0 284.5,456.0 286.2,455.0 287.9,454.0 289.6,453.0 291.3,452.0 293.0,451.0 294.7,450.0 296.4,449.0 298.2,448.0 299.9,448.0 301.6,447.0 303.3,446.0 305.0,445.0 306.7,444.0 308.4,443.0 310.2,442.0 311.9,441.0 313.6,440.0 315.3,439.0 317.0,438.0 318.7,437.0 320.4,436.0 322.1,436.0 323.9,435.0 325.6,434.0 327.3,433.0 329.0,432.0 330.7,431.0 332.4,431.0 334.1,430.0 335.9,429.0 337.6,428.0 339.3,428.0 341.0,427.0 342.7,426.0 344.4,426.0 346.1,425.0 347.8,424.0 349.6,424.0 351.3,423.0 353.0,423.0 354.7,422.0 356.4,422.0 358.1,421.0 359.8,421.0 361.6,421.0 363.3,420.0 365.0,420.0 366.7,420.0 368.4,419.0 370.1,419.0 371.8,419.0 373.6,419.0 375.3,419.0 377.0,418.0 378.7,418.0 380.4,418.0 382.1,418.0 383.8,418.0 385.5,418.0 387.3,418.0 389.0,418.0 390.7,419.0 392.4,419.0 394.1,419.0 395.8,419.0 397.5,419.0 399.3,420.0 401.0,420.0 402.7,420.0 404.4,421.0 406.1,421.0 407.8,421.0 409.5,422.0 411.2,422.0 413.0,423.0 414.7,423.0 416.4,424.0 418.1,424.0 419.8,425.0 421.5,426.0 423.2,426.0 425.0,427.0 426.7,428.0 428.4,428.0 430.1,429.0 431.8,430.0 433.5,430.0 435.2,431.0 436.9,432.0 438.7,433.0 440.4,433.0 442.1,434.0 443.8,435.0 445.5,436.0 447.2,437.0 448.9,438.0 450.7,438.0 452.4,439.0 454.1,440.0 455.8,441.0 457.5,442.0 459.2,443.0 460.9,444.0 462.6,445.0 464.4,445.0 466.1,446.0 467.8,447.0 469.5,448.0 471.2,449.0 472.9,450.0 474.6,451.0 476.4,452.0 478.1,452.0 479.8,453.0 481.5,454.0 483.2,455.0 484.9,456.0 486.6,457.0 488.3,457.0 490.1,458.0 491.8,459.0 493.5,460.0 495.2,460.0 496.9,461.0 498.6,462.0 500.3,463.0 502.1,463.0 503.8,464.0 505.5,464.0 507.2,465.0 508.9,466.0 510.6,466.0 512.3,467.0 514.0,467.0 515.8,468.0 517.5,468.0 519.2,469.0 520.9,469.0 522.6,470.0 524.3,470.0 526.0,470.0 527.8,471.0 529.5,471.0 531.2,471.0 532.9,471.0 534.6,472.0 536.3,472.0 538.0,472.0 539.7,472.0 541.5,472.0 543.2,472.0 544.9,472.0 546.6,472.0 548.3,472.0 550.0,472.0 551.7,472.0 553.5,472.0 555.2,472.0 556.9,472.0 558.6,472.0 560.3,471.0 562.0,471.0 563.7,471.0 565.4,471.0 567.2,470.0 568.9,470.0 570.6,470.0 572.3,469.0 574.0,469.0 575.7,469.0 577.4,468.0 579.2,468.0 580.9,467.0 582.6,467.0 584.3,466.0 586.0,466.0 587.7,465.0 589.4,464.0 591.2,464.0 592.9,463.0 594.6,463.0 596.3,462.0 598.0,461.0 599.7,461.0 601.4,460.0 603.1,459.0 604.9,458.0 606.6,458.0 608.3,457.0 610.0,456.0 611.7,455.0 613.4,455.0 615.1,454.0 616.9,453.0 618.6,452.0 620.3,452.0 622.0,451.0 623.7,450.0 625.4,449.0 627.1,448.0 628.8,448.0 630.6,447.0 632.3,446.0 634.0,445.0 635.7,444.0 637.4,444.0 639.1,443.0 640.8,442.0 642.6,441.0 644.3,441.0 646.0,440.0 647.7,439.0 649.4,438.0 651.1,438.0 652.8,437.0 654.5,436.0 656.3,435.0 658.0,435.0 659.7,434.0 661.4,433.0 663.1,433.0 664.8,432.0 666.5,432.0 668.3,431.0 670.0,430.0 671.7,430.0 673.4,429.0 675.1,429.0 676.8,428.0 678.5,428.0 680.2,427.0 682.0,427.0 683.7,427.0 685.4,426.0 687.1,426.0 688.8,425.0 690.5,425.0 692.2,425.0 694.0,425.0 695.7,424.0 697.4,424.0 699.1,424.0 700.8,424.0 702.5,424.0 704.2,423.0 705.9,423.0 707.7,423.0 709.4,423.0 711.1,423.0 712.8,423.0 714.5,423.0 716.2,423.0 717.9,423.0 719.7,423.0 721.4,423.0 723.1,423.0 724.8,424.0 726.5,424.0 728.2,424.0 729.9,424.0 731.6,424.0 733.4,425.0 735.1,425.0 736.8,425.0 738.5,426.0 740.2,426.0 741.9,426.0 743.6,427.0 745.4,427.0 747.1,428.0 748.8,428.0 750.5,428.0 752.2,429.0 753.9,429.0 755.6,430.0 757.3,430.0 759.1,431.0 760.8,432.0 762.5,432.0 764.2,433.0 765.9,433.0 767.6,434.0 769.3,434.0 771.1,435.0 772.8,436.0 774.5,436.0 776.2,437.0 777.9,438.0 779.6,438.0 781.3,439.0 783.1,440.0 784.8,440.0 786.5,441.0 788.2,442.0 789.9,442.0 791.6,443.0 793.3,444.0 795.0,445.0 796.8,445.0 798.5,446.0 800.2,447.0 801.9,447.0 803.6,448.0 805.3,449.0 807.0,449.0 808.8,450.0 810.5,451.0 812.2,451.0 813.9,452.0 815.6,453.0 817.3,453.0 819.0,454.0 820.7,455.0 822.5,455.0 824.2,456.0 825.9,456.0 827.6,457.0 829.3,457.0 831.0,458.0 832.7,459.0 834.5,459.0 836.2,460.0 837.9,460.0 839.6,461.0 841.3,461.0 843.0,461.0 844.7,462.0 846.4,462.0 848.2,463.0 849.9,463.0 851.6,463.0 853.3,464.0 855.0,464.0 856.7,464.0 858.4,465.0 860.2,465.0 861.9,465.0 863.6,465.0 865.3,466.0 867.0,466.0 868.7,466.0 870.4,466.0 872.1,466.0 873.9,466.0 875.6,467.0 877.3,467.0 879.0,467.0" fill="none" stroke="#C62828" stroke-width="1.2"/>
<text x="64" y="356" fill="#C62828" font-weight="bold">U (垂直)</text>
<text x="876" y="356" text-anchor="end" fill="#555">RMS=806867761.32 cm</text>
<rect x="60" y="342" width="820" height="149" fill="none" stroke="#ccc" stroke-width="1"/>
<text x="450" y="512" text-anchor="middle" font-size="12" fill="#333">2024-05-02 4h | 3D RMS=967863064.14 cm (479 epochs)</text>
</svg>